<svg width="30" height="30" viewBox="0 0 30 30" fill="none" xmlns="http://www.w3.org/2000/svg">
<path fill-rule="evenodd" clip-rule="evenodd" d="M20.9586 3.89584C19.4629 3.89587 18.2503 5.10842 18.2503 6.60417C18.2503 8.09996 19.4629 9.31253 20.9586 9.3125C22.4544 9.31247 23.6669 8.09992 23.667 6.60417C23.667 5.10837 22.4544 3.8958 20.9586 3.89584ZM6.33367 6.60417C5.58579 6.60417 4.9795 7.21045 4.9795 7.95834C4.9795 8.70622 5.58579 9.3125 6.33367 9.3125C7.72398 9.3125 10.7401 9.57242 13.3863 10.1605C14.113 10.322 14.7846 10.5024 15.3719 10.6987C15.1269 10.9519 14.9011 11.1919 14.6994 11.4185C14.181 12.001 13.669 12.6563 13.4398 13.3713C13.3151 13.7603 13.264 14.1942 13.3547 14.6501C13.4449 15.104 13.6578 15.4894 13.924 15.8105C13.961 15.855 13.9994 15.8989 14.0392 15.942C13.3161 16.6617 12.5971 17.3168 11.9945 17.8086C11.6352 18.1017 11.3407 18.3175 11.1257 18.4525C11.1018 18.4675 11.0802 18.4807 11.0606 18.4923C10.8732 18.4365 10.5229 18.2823 9.95942 17.8915C9.23025 17.3858 8.3387 16.6259 7.24871 15.6268C6.93548 15.3396 6.50563 15.2162 6.08777 15.2933C5.66991 15.3705 5.3125 15.6393 5.12247 16.0194L4.03913 18.1861C3.70467 18.855 3.97581 19.6684 4.64474 20.0029C5.31366 20.3373 6.12708 20.0662 6.46154 19.3973L6.75426 18.8118C7.34502 19.3174 7.89995 19.7591 8.41601 20.117C9.25064 20.6958 10.2198 21.2292 11.2087 21.2292C11.5585 21.2292 11.8536 21.1147 12.0146 21.0443C12.205 20.9611 12.3925 20.855 12.5654 20.7465C12.9132 20.5282 13.3043 20.2353 13.7067 19.907C14.5078 19.2533 15.4476 18.3817 16.3456 17.462C16.9334 17.7739 17.2704 18.012 17.4678 18.2217C17.6358 18.4003 17.709 18.5584 17.709 18.8592C17.7089 19.245 17.5811 19.8501 17.192 20.8468C16.81 21.8254 16.225 23.064 15.4139 24.686C15.204 25.1058 15.2265 25.6043 15.4732 26.0036C15.7199 26.4028 16.1558 26.6458 16.6251 26.6458H18.7906C19.5385 26.6458 20.1448 26.0396 20.1448 25.2917C20.1448 24.5446 19.5398 23.9388 18.793 23.9375C19.1625 23.1541 19.4713 22.4559 19.7149 21.8316C20.1386 20.7463 20.4172 19.7602 20.4173 18.8596C20.4175 17.8739 20.0845 17.0503 19.44 16.3655C19.0924 15.9962 18.668 15.6832 18.2051 15.4023C18.4345 15.1236 18.6504 14.8488 18.8477 14.5823C18.9291 14.4724 19.0085 14.3624 19.0853 14.2525C19.1775 14.3065 19.2717 14.3563 19.3672 14.402C20.2357 14.8173 21.2421 14.9152 22.1658 14.7833C23.9449 14.5291 26.1045 13.2372 26.1045 10.6667C26.1045 9.91878 25.4982 9.3125 24.7503 9.3125C24.0025 9.3125 23.3962 9.91878 23.3962 10.6667C23.3962 11.3461 22.8474 11.9501 21.7828 12.1022C21.2846 12.1733 20.8353 12.1019 20.5358 11.9587C20.3014 11.8466 20.1891 11.7135 20.1389 11.558C20.0872 10.8776 19.7657 10.3179 19.3767 9.89395C19.1102 9.60359 18.7934 9.35432 18.4563 9.13868C18.4398 9.12777 18.4232 9.11724 18.4064 9.10712C18.2362 9.00051 18.0611 8.90228 17.8851 8.81149C16.7964 8.24988 15.3859 7.83042 13.9738 7.51662C11.1356 6.88592 7.92252 6.60417 6.33367 6.60417ZM10.9301 18.5626C10.9121 18.5705 10.9136 18.5682 10.932 18.5618L10.9301 18.5626Z" fill="#F2F2F2"/>
</svg>
