<svg width="30" height="30" viewBox="0 0 30 30" fill="none" xmlns="http://www.w3.org/2000/svg">
<path fill-rule="evenodd" clip-rule="evenodd" d="M5.40828 3.89575C5.19931 3.41749 4.72208 3.08325 4.16679 3.08325C3.4189 3.08325 2.81262 3.68953 2.81262 4.43742V6.06242C2.81262 6.8103 3.4189 7.41659 4.16679 7.41659C4.72208 7.41659 5.19931 7.08235 5.40828 6.60409H5.54389C5.61781 7.86883 5.87178 8.94635 6.3265 9.84672C6.88981 10.9621 7.72 11.7229 8.70695 12.2164C9.66294 12.6944 10.7296 12.9042 11.7723 13.0048C12.0261 13.0293 12.2843 13.0477 12.5452 13.0616C12.4542 16.4648 12.0043 19.6765 11.1783 23.9373H10.125C9.37714 23.9373 8.77086 24.5436 8.77086 25.2915C8.77086 26.0394 9.37714 26.6456 10.125 26.6456H12.2917C12.9372 26.6456 13.493 26.19 13.6196 25.5571C14.2709 22.3004 14.7333 19.6006 15.0001 17.0033C15.2668 19.6006 15.7292 22.3003 16.3805 25.5571C16.5071 26.19 17.0629 26.6456 17.7084 26.6456H19.875C20.6229 26.6456 21.2292 26.0394 21.2292 25.2915C21.2292 24.5436 20.6229 23.9373 19.875 23.9373H18.8217C17.9957 19.6765 17.546 16.4648 17.455 13.0616C17.7159 13.0477 17.9741 13.0293 18.2279 13.0048C19.2706 12.9042 20.3373 12.6944 21.2932 12.2164C22.2802 11.7229 23.1104 10.9622 23.6737 9.84678C24.1285 8.94642 24.3824 7.86892 24.4563 6.6042H24.592C24.8009 7.08246 25.2782 7.4167 25.8335 7.4167C26.5813 7.4167 27.1876 6.81042 27.1876 6.06253V4.43753C27.1876 3.68964 26.5813 3.08336 25.8335 3.08336C25.2782 3.08336 24.8009 3.4176 24.592 3.89586H21.6583C21.4493 3.4176 20.9721 3.08336 20.4168 3.08336C19.6689 3.08336 19.0626 3.68964 19.0626 4.43753V6.06253C19.0626 6.81042 19.6689 7.4167 20.4168 7.4167C20.9721 7.4167 21.4493 7.08246 21.6583 6.6042H21.7421C21.6737 7.5173 21.4895 8.16403 21.2562 8.62582C20.9732 9.18621 20.5847 9.54266 20.082 9.79397C19.5485 10.0608 18.8547 10.2234 17.9677 10.309C17.08 10.3946 16.0987 10.3958 15.0001 10.3958C13.9014 10.3958 12.9202 10.3946 12.0325 10.309C11.1455 10.2234 10.4518 10.0608 9.91819 9.79397C9.41557 9.54265 9.02704 9.1862 8.74402 8.62579C8.51079 8.16398 8.32658 7.51722 8.25812 6.60409H8.34197C8.55093 7.08235 9.02816 7.41659 9.58346 7.41659C10.3313 7.41659 10.9376 6.8103 10.9376 6.06242V4.43742C10.9376 3.68953 10.3313 3.08325 9.58346 3.08325C9.02816 3.08325 8.55093 3.41749 8.34197 3.89575H5.40828ZM12.2918 6.60408C12.2918 5.10834 13.5043 3.89578 15.0001 3.89575C16.4959 3.89572 17.7085 5.10829 17.7084 6.60408C17.7084 8.09983 16.4958 9.31239 15.0001 9.31242C13.5043 9.31245 12.2917 8.09987 12.2918 6.60408Z" fill="#F2F2F2"/>
</svg>
