<svg width="36" height="37" viewBox="0 0 36 37" fill="none" xmlns="http://www.w3.org/2000/svg">
<g clip-path="url(#clip0_168_310)">
<path fill-rule="evenodd" clip-rule="evenodd" d="M13.5565 24.5585C12.6556 22.881 12.1909 20.8082 12.4477 19.026C12.5203 18.5221 12.8694 18.1015 13.3513 17.9373C17.292 16.5947 18.6443 13.9503 19.9819 11.3347C20.2851 10.7418 20.5875 10.1504 20.9192 9.5759C21.2931 8.92821 22.1213 8.7063 22.769 9.08024C23.4167 9.45418 23.6386 10.2824 23.2647 10.9301C23.0272 11.3414 22.788 11.8183 22.5277 12.3375C21.4501 14.4865 20.0098 17.3588 16.8236 19.296C17.3076 20.7301 18.273 22.705 20.3271 23.9315C20.9417 23.2417 21.5938 22.3631 22.2486 21.3599C23.7452 19.0674 25.1441 16.2989 26.0408 14.0965L25.1671 13.5921C24.5194 13.2181 24.2975 12.39 24.6714 11.7423C25.0454 11.0946 25.8736 10.8727 26.5213 11.2466L28.3978 12.33C28.966 12.6581 29.2173 13.3462 28.9942 13.9631C28.0854 16.4771 26.3772 19.9901 24.5165 22.8404C23.5885 24.262 22.5843 25.5784 21.5821 26.5287C21.081 27.0039 20.5404 27.426 19.9718 27.7167C19.4054 28.0063 18.7244 28.2086 17.9952 28.1035C15.9433 27.8077 14.444 26.2109 13.5565 24.5585ZM14.1046 15.9616C13.3567 17.257 11.7004 17.7008 10.405 16.953C9.1096 16.2051 8.66577 14.5487 9.41366 13.2533C10.1615 11.9579 11.8179 11.5141 13.1133 12.262C14.4087 13.0099 14.8525 14.6663 14.1046 15.9616Z" fill="#F2F2F2"/>
</g>
<rect x="20.7319" y="10.732" width="3" height="25" rx="1.5" fill="#F2F2F2"/>
<defs>
<clipPath id="clip0_168_310">
<rect width="26" height="26" fill="white" transform="translate(22.5166 35.5167) rotate(-150)"/>
</clipPath>
</defs>
</svg>
