<svg width="30" height="30" viewBox="0 0 30 30" fill="none" xmlns="http://www.w3.org/2000/svg">
<path d="M25.8333 9.31243C25.8333 10.0603 25.227 10.6666 24.4791 10.6666C23.7312 10.6666 23.125 10.0603 23.125 9.31243C23.125 8.56455 23.7312 7.95827 24.4791 7.95827C25.227 7.95827 25.8333 8.56455 25.8333 9.31243Z" fill="#F2F2F2"/>
<path d="M17.9895 11.2077C19.2921 10.8355 19.9472 11.5771 20.2374 12.8337C16.0838 15.0004 14.6912 14.6458 14.4588 13.917C14.2264 13.1883 14.1983 12.291 17.9895 11.2077Z" fill="#F2F2F2"/>
<path d="M21.7807 21.4996H19.8751C20.0141 19.515 20.7917 15.2345 20.2374 12.8337M20.2374 12.8337C19.9472 11.5771 19.2921 10.8355 17.9895 11.2077C14.1983 12.291 14.2264 13.1883 14.4588 13.917M20.2374 12.8337C16.0838 15.0004 14.6912 14.6458 14.4588 13.917M14.4588 13.917L4.16663 18.2502C4.16663 19.8752 4.97913 20.9585 5.79163 20.9585M25.8333 9.31243C25.8333 10.0603 25.227 10.6666 24.4791 10.6666C23.7312 10.6666 23.125 10.0603 23.125 9.31243C23.125 8.56455 23.7312 7.95827 24.4791 7.95827C25.227 7.95827 25.8333 8.56455 25.8333 9.31243Z" stroke="#F2F2F2" stroke-width="2.5" stroke-linecap="round" stroke-linejoin="round"/>
</svg>
