<svg width="30" height="30" viewBox="0 0 30 30" fill="none" xmlns="http://www.w3.org/2000/svg">
<g clip-path="url(#clip0_168_306)">
<path fill-rule="evenodd" clip-rule="evenodd" d="M26.1623 2.85298C26.8879 3.03444 27.3289 3.76971 27.1475 4.49525L26.0637 8.82858C25.8822 9.55412 25.1469 9.99518 24.4214 9.81372C23.6958 9.63225 23.2548 8.89698 23.4363 8.17145L23.5817 7.58991C23.361 7.57136 23.1106 7.55079 22.8358 7.52896C22.7273 9.49895 22.1358 11.7421 21.0399 13.5914C20.2052 15 19.0093 16.2778 17.4373 16.947L17.4373 19.5358C17.9314 19.1829 18.4444 18.8609 18.9446 18.5892C19.4781 18.2994 20.0268 18.0504 20.548 17.8838C21.037 17.7274 21.6413 17.5971 22.2271 17.6856C22.5384 17.7326 22.9015 17.8503 23.2265 18.1141C23.5655 18.3891 23.7777 18.7542 23.8756 19.1443C24.0511 19.8432 23.8525 20.5715 23.6031 21.1785C23.252 22.0331 22.5959 23.12 21.5868 24.4814C22.2942 24.5262 22.8541 25.1141 22.8541 25.8328C22.8541 26.5807 22.2478 27.187 21.5 27.187H18.7912C18.2657 27.187 17.7877 26.883 17.5649 26.4072C17.342 25.9313 17.4145 25.3695 17.7509 24.9659C19.4183 22.9652 20.3712 21.576 20.8533 20.6641C20.6616 20.749 20.4549 20.8509 20.2375 20.9691C19.3709 21.4398 18.4519 22.1029 17.7679 22.765C17.0725 23.4381 16.1045 23.9366 14.9998 23.9366C13.8952 23.9366 12.9272 23.4381 12.2319 22.7651C11.5478 22.1029 10.6287 21.4398 9.76218 20.9691C9.5446 20.8509 9.33789 20.7489 9.14606 20.664C9.62805 21.5759 10.5808 22.9651 12.2482 24.9659C12.5845 25.3696 12.6571 25.9314 12.4342 26.4072C12.2113 26.883 11.7333 27.187 11.2079 27.187H8.49995C7.75207 27.187 7.14579 26.5807 7.14579 25.8328C7.14579 25.1143 7.70538 24.5265 8.41252 24.4814C7.40343 23.1199 6.74734 22.033 6.39635 21.1785C6.14702 20.5714 5.94845 19.8431 6.12397 19.1442C6.22193 18.7542 6.43419 18.3891 6.77313 18.1141C7.09819 17.8503 7.46124 17.7326 7.77254 17.6856C8.35838 17.5971 8.96265 17.7274 9.45166 17.8838C9.97285 18.0504 10.5215 18.2994 11.055 18.5892C11.5552 18.8609 12.0682 19.1829 12.5623 19.5358L12.5623 16.9468C10.9905 16.2776 9.79467 14.9999 8.96001 13.5914C7.86411 11.7421 7.27257 9.49896 7.16409 7.52896C6.88929 7.55079 6.63894 7.57135 6.41827 7.5899L6.56369 8.17158C6.74508 8.89714 6.30394 9.63236 5.57839 9.81375C4.85283 9.99514 4.11761 9.554 3.93622 8.82845L2.85289 4.49512C2.6715 3.76956 3.11263 3.03434 3.83819 2.85295C4.56374 2.67156 5.29897 3.11269 5.48036 3.83825L5.75294 4.92858C5.85549 4.91965 5.96923 4.90987 6.09315 4.89938C6.69785 4.84817 7.54601 4.77992 8.52112 4.71165C10.4639 4.57565 12.9392 4.43752 15 4.43752C17.0607 4.43752 19.536 4.57565 21.4788 4.71165C22.4539 4.77992 23.3021 4.84817 23.9068 4.89938C24.0308 4.90988 24.1447 4.91967 24.2473 4.92861L24.5201 3.83811C24.7015 3.11258 25.4368 2.67152 26.1623 2.85298ZM9.86598 7.33685C9.94579 8.91982 10.4278 10.7559 11.29 12.2107C12.2339 13.8036 13.4861 14.7292 15 14.7292C16.5139 14.7292 17.766 13.8036 18.71 12.2107C19.5721 10.7559 20.0541 8.91983 20.1339 7.33685C18.4579 7.23247 16.5867 7.14585 15 7.14585C13.4132 7.14585 11.542 7.23247 9.86598 7.33685ZM12.2917 10.9375C12.2917 9.44176 13.5043 8.22921 15 8.22918C16.4958 8.22915 17.7084 9.44172 17.7084 10.9375C17.7083 12.4333 16.4958 13.6458 15 13.6458C13.5042 13.6459 12.2917 12.4333 12.2917 10.9375Z" fill="#F2F2F2"/>
</g>
<defs>
<clipPath id="clip0_168_306">
<rect width="26" height="26" fill="white" transform="translate(2 2)"/>
</clipPath>
</defs>
</svg>
