<svg width="393" height="852" viewBox="0 0 393 852" fill="none" xmlns="http://www.w3.org/2000/svg">
<g clip-path="url(#clip0_169_510)">
<rect width="393" height="852" fill="#010101"/>
<g clip-path="url(#clip1_169_510)">
<rect x="130" y="839" width="134" height="5" rx="2.5" fill="white"/>
</g>
<rect opacity="0.35" x="354.833" y="17.8333" width="21" height="10.3333" rx="2.16667" stroke="white"/>
<path opacity="0.4" d="M377.333 21V25C378.138 24.6612 378.661 23.8731 378.661 23C378.661 22.1269 378.138 21.3388 377.333 21Z" fill="white"/>
<rect x="356.333" y="19.3333" width="18" height="7.33333" rx="1.33333" fill="white"/>
<path fill-rule="evenodd" clip-rule="evenodd" d="M339.448 25.7573C340.729 24.675 342.605 24.675 343.886 25.7573C343.95 25.8155 343.987 25.8981 343.989 25.9848C343.991 26.0714 343.956 26.1546 343.895 26.2153L341.89 28.2377C341.831 28.2971 341.751 28.3305 341.667 28.3305C341.583 28.3305 341.503 28.2971 341.444 28.2377L339.438 26.2153C339.377 26.1546 339.343 26.0712 339.345 25.9848C339.347 25.8981 339.384 25.8154 339.448 25.7573ZM336.772 23.06C339.532 20.4956 343.804 20.4957 346.563 23.06C346.626 23.1201 346.661 23.2029 346.662 23.2895C346.663 23.3758 346.629 23.4587 346.568 23.52L345.409 24.6908C345.29 24.8102 345.097 24.812 344.975 24.6957C344.069 23.876 342.889 23.4222 341.667 23.4223C340.446 23.4228 339.268 23.8767 338.362 24.6957C338.24 24.8121 338.046 24.8104 337.927 24.6908L336.769 23.52C336.707 23.4588 336.673 23.3759 336.674 23.2895C336.675 23.203 336.71 23.1201 336.772 23.06ZM334.097 20.3696C338.328 16.3175 345.004 16.3176 349.236 20.3696C349.298 20.4298 349.333 20.5122 349.333 20.5981C349.333 20.6838 349.3 20.7667 349.239 20.8276L348.079 21.9975C347.96 22.1176 347.765 22.1187 347.644 22.0004C346.031 20.469 343.892 19.6148 341.667 19.6147C339.442 19.6147 337.302 20.4688 335.689 22.0004C335.568 22.1188 335.374 22.1176 335.255 21.9975L334.094 20.8276C334.033 20.7667 334 20.6838 334 20.5981C334.001 20.5122 334.035 20.4297 334.097 20.3696Z" fill="white"/>
<path d="M314 24.3335C314.552 24.3335 315 24.7812 315 25.3335V27.3335C315 27.8856 314.552 28.3335 314 28.3335H313C312.448 28.3335 312 27.8856 312 27.3335V25.3335C312 24.7812 312.448 24.3335 313 24.3335H314ZM318.667 22.3335C319.219 22.3337 319.667 22.7813 319.667 23.3335V27.3335C319.667 27.8855 319.219 28.3333 318.667 28.3335H317.667C317.115 28.3335 316.667 27.8856 316.667 27.3335V23.3335C316.667 22.7812 317.115 22.3335 317.667 22.3335H318.667ZM323.333 19.9995C323.885 19.9995 324.333 20.4474 324.333 20.9995V27.3335C324.333 27.8856 323.885 28.3335 323.333 28.3335H322.333C321.781 28.3333 321.333 27.8855 321.333 27.3335V20.9995C321.333 20.4475 321.781 19.9997 322.333 19.9995H323.333ZM328 17.6665C328.552 17.6665 329 18.1142 329 18.6665V27.3335C329 27.8856 328.552 28.3335 328 28.3335H327C326.448 28.3335 326 27.8856 326 27.3335V18.6665C326 18.1142 326.448 17.6665 327 17.6665H328Z" fill="white"/>
<path d="M36.2146 17.1675C33.9222 17.1675 32.2889 18.7349 32.2889 20.8809V20.8955C32.2889 22.9023 33.7098 24.3818 35.7386 24.3818C37.1888 24.3818 38.1116 23.6421 38.4998 22.8071H38.6463C38.6463 22.8877 38.639 22.9683 38.639 23.0488C38.5584 25.0703 37.8479 26.7109 36.1707 26.7109C35.2405 26.7109 34.5887 26.2275 34.3104 25.4878L34.2884 25.4146H32.428L32.4427 25.4951C32.7796 27.1138 34.2298 28.2637 36.1707 28.2637C38.8294 28.2637 40.4334 26.1543 40.4334 22.5947V22.5801C40.4334 18.7715 38.4705 17.1675 36.2146 17.1675ZM36.2073 22.9316C35.0062 22.9316 34.1346 22.0527 34.1346 20.8296V20.8149C34.1346 19.6357 35.0647 18.7056 36.2293 18.7056C37.4012 18.7056 38.3167 19.6504 38.3167 20.8589V20.8735C38.3167 22.0674 37.4012 22.9316 36.2073 22.9316ZM43.4586 21.1519C44.1324 21.1519 44.6231 20.6392 44.6231 19.9946C44.6231 19.3428 44.1324 18.8374 43.4586 18.8374C42.7921 18.8374 42.294 19.3428 42.294 19.9946C42.294 20.6392 42.7921 21.1519 43.4586 21.1519ZM43.4586 26.5864C44.1324 26.5864 44.6231 26.0811 44.6231 25.4292C44.6231 24.7773 44.1324 24.272 43.4586 24.272C42.7921 24.272 42.294 24.7773 42.294 25.4292C42.294 26.0811 42.7921 26.5864 43.4586 26.5864ZM51.6107 28H53.4198V25.9712H54.8407V24.4111H53.4198V17.4312H50.7465C49.3109 19.6138 47.8095 22.0454 46.4398 24.4258V25.9712H51.6107V28ZM48.1977 24.4551V24.3452C49.223 22.5508 50.4462 20.5952 51.5302 18.9399H51.64V24.4551H48.1977ZM58.9206 28H60.8103V17.4312H58.9279L56.1667 19.3721V21.1519L58.7961 19.2915H58.9206V28Z" fill="white"/>
<g filter="url(#filter0_d_169_510)">
<rect x="152" y="440" width="90" height="52" rx="26" fill="white"/>
<rect x="152.5" y="440.5" width="89" height="51" rx="25.5" stroke="white" stroke-opacity="0.05"/>
</g>
<path d="M188.43 473.343H186.322V465.829H185.302V472.663H183.211V458.434H185.302V464.061H186.322V458.196H188.43V473.343ZM183.109 468.124L181.936 469.807C180.95 469.178 179.59 467.58 179.216 466.254C178.927 467.546 177.448 469.467 176.275 470.147L175.085 468.583C177.482 467.121 178.162 464.843 178.162 462.089V461.443H175.748V459.675H182.531V461.443H180.338V462.072C180.338 464.911 180.848 466.713 183.109 468.124ZM202.816 473.343H200.521V458.196H202.816V473.343ZM199.875 468.09L198.566 469.892C197.291 469.195 195.54 467.546 195.098 466.05C194.707 467.614 192.973 469.552 191.596 470.249L190.185 468.515C192.803 466.968 193.891 464.707 193.891 461.528V459.437H196.237V461.46C196.237 464.622 197.495 466.764 199.875 468.09ZM216.964 466.492H212.884V469.705H218.613V471.473H204.928V469.705H210.657V466.492H206.679V459.233H216.879V461.035H208.94V464.724H216.964V466.492Z" fill="#010101"/>
<path d="M107.792 381.846H106.5V374.332H107.792V381.846ZM108.336 388.986H98.1703V385.229H106.5V383.682H98.1193V382.628H107.792V386.232H99.4623V387.932H108.336V388.986ZM99.9213 374.791C102.046 374.791 103.763 376.134 103.763 378.157C103.763 380.163 102.046 381.472 99.9213 381.472C97.7963 381.472 96.0453 380.18 96.0453 378.157C96.0453 376.151 97.7793 374.791 99.9213 374.791ZM99.9213 375.913C98.4593 375.913 97.3033 376.814 97.3033 378.14C97.3033 379.466 98.4423 380.35 99.9213 380.35C101.468 380.35 102.505 379.466 102.505 378.157C102.505 376.831 101.468 375.913 99.9213 375.913ZM122.603 389.19H121.294V374.332H122.603V389.19ZM119.407 384.634L118.591 385.62C117.248 384.702 115.497 382.866 114.919 381.081C114.375 382.934 112.845 384.753 111.128 385.977L110.278 385.008C112.454 383.648 114.239 380.945 114.239 378.31V375.624H115.548V378.259C115.548 380.979 117.35 383.41 119.407 384.634ZM125.463 376.576V375.488H133.47V376.576H130.155C130.155 376.882 130.155 377.273 130.172 377.46C130.291 379.483 132.093 381.132 133.793 381.693L133.079 382.73C131.651 382.152 130.104 380.673 129.492 379.33C129.084 380.724 127.299 382.509 125.701 383.206L125.004 382.169C126.874 381.455 128.761 379.568 128.829 377.46C128.846 377.273 128.846 376.865 128.846 376.576H125.463ZM127.316 383.971H137.227V389.19H135.918V385.042H127.316V383.971ZM137.21 383.189H135.918V379.364H132.943V378.293H135.918V374.332H137.21V383.189ZM151.919 385.178H150.627V374.332H151.919V385.178ZM152.293 388.697H142.229V384.107H143.521V387.626H152.293V388.697ZM144.099 375.318C146.36 375.318 148.111 376.814 148.111 379.024C148.111 381.234 146.377 382.713 144.116 382.713C141.855 382.713 140.104 381.251 140.104 379.041C140.104 376.831 141.855 375.318 144.099 375.318ZM144.099 376.44C142.535 376.44 141.345 377.511 141.345 379.024C141.345 380.52 142.552 381.574 144.116 381.574C145.748 381.574 146.887 380.52 146.887 379.041C146.887 377.511 145.748 376.44 144.099 376.44ZM171.009 379.313C171.009 381.591 169.139 383.138 166.283 383.325V386.147H172.369V387.235H158.956V386.147H164.991V383.325C162.152 383.121 160.299 381.591 160.299 379.313C160.299 376.865 162.441 375.267 165.637 375.267C168.884 375.267 171.009 376.865 171.009 379.313ZM169.768 379.33C169.768 377.545 168.153 376.355 165.637 376.355C163.172 376.355 161.557 377.545 161.557 379.33C161.557 381.115 163.172 382.288 165.637 382.288C168.136 382.288 169.768 381.115 169.768 379.33ZM185.871 381.676H175.229V377.698H184.171V376.015H175.263V374.927H185.463V378.769H176.521V380.588H185.871V381.676ZM178.476 389.207H177.184V384.413H173.665V383.325H187.078V384.413H183.525V389.207H182.216V384.413H178.476V389.207ZM199.798 374.332V380.52H202.229V381.625H199.798V389.19H198.506V374.332H199.798ZM195.939 375.93C195.854 380.758 193.066 384.243 189.241 386.232L188.442 385.212C192.148 383.495 194.273 380.367 194.545 377.018H188.952V375.93H195.939ZM221.234 378.752H218.973V382.016H217.681V374.332H218.973V377.664H221.234V378.752ZM219.517 389.088H209.487V385.382H217.681V383.92H209.47V382.866H218.973V386.385H210.779V388.017H219.517V389.088ZM215.012 381.506H208.076V374.91H209.368V377.086H213.703V374.91H215.012V381.506ZM213.703 380.435V378.157H209.368V380.435H213.703ZM234.923 386.419C234.923 388.102 233.036 389.156 229.857 389.156C226.678 389.156 224.808 388.102 224.808 386.419C224.808 384.736 226.678 383.682 229.857 383.682C233.036 383.682 234.923 384.736 234.923 386.419ZM234.787 383.716H233.495V379.347H231.642V382.985H230.384V374.604H231.642V378.259H233.495V374.332H234.787V383.716ZM229.857 384.77C227.596 384.77 226.168 385.416 226.168 386.419C226.168 387.439 227.596 388.085 229.857 388.085C232.135 388.085 233.546 387.439 233.546 386.419C233.546 385.416 232.135 384.77 229.857 384.77ZM229.772 381.421L229.075 382.407C227.749 381.778 226.474 380.469 225.964 379.313C225.59 380.52 224.298 382.118 222.921 382.917L222.122 381.931C223.703 381.081 225.301 379.279 225.301 377.052V375.199H226.559V377.018C226.559 379.296 228.361 380.809 229.772 381.421ZM249.496 383.75H248.204V379.619H246.436V383.529H245.195V374.604H246.436V378.531H248.204V374.332H249.496V383.75ZM243.903 381.149C243.903 382.594 242.526 383.427 240.707 383.427C238.871 383.427 237.494 382.594 237.494 381.149C237.494 379.687 238.871 378.837 240.707 378.837C242.526 378.837 243.903 379.687 243.903 381.149ZM249.768 389.173C248.748 388.731 247.439 387.609 247.082 386.555C246.759 387.66 245.586 388.799 244.243 389.411L243.529 388.459C245.28 387.711 246.419 386.504 246.419 384.566V384.107H247.694V384.515C247.694 386.351 249.088 387.779 250.567 388.272L249.768 389.173ZM244.175 387.133L243.478 388.085C242.764 387.796 241.965 387.184 241.591 386.3C241.251 387.405 240.044 388.646 238.616 389.207L237.902 388.289C239.568 387.609 240.911 386.385 240.911 384.447V384.124H242.186V384.345C242.186 385.994 243.036 386.776 244.175 387.133ZM242.662 381.149C242.662 380.384 241.812 379.857 240.707 379.857C239.585 379.857 238.735 380.384 238.735 381.149C238.735 381.897 239.585 382.441 240.707 382.441C241.829 382.441 242.662 381.897 242.662 381.149ZM244.43 378.225H236.899V377.154H244.43V378.225ZM242.628 376.083H238.769V374.961H242.628V376.083ZM264.392 378.922L263.78 380.044C261.536 379.619 259.122 378.208 258.391 376.661C257.745 378.208 255.28 379.602 253.036 380.044L252.424 378.922C254.753 378.667 257.728 377.086 257.728 374.995V374.519H259.071V374.995C259.071 377.086 262.097 378.667 264.392 378.922ZM265.089 382.305H251.676V381.217H265.089V382.305ZM263.389 388.986H253.393V383.359H254.685V385.093H262.08V383.342H263.389V388.986ZM262.08 387.915V386.147H254.685V387.915H262.08ZM278.421 374.332V389.19H277.146V374.332H278.421ZM275.633 383.733L275.752 384.855C274.035 385.246 270.159 385.535 267.881 385.535H267.218V375.879H268.527V384.396C270.431 384.396 273.865 384.124 275.633 383.733ZM292.552 374.332V380.231H294.966V381.319H292.552V389.19H291.26V374.332H292.552ZM282.981 384.447H283.831C285.752 384.447 288.693 384.277 290.121 383.971L290.257 385.042C288.659 385.348 285.718 385.552 283.134 385.552H281.672V375.879H288.727V376.967H282.981V384.447ZM295.871 387.711V386.198H297.35V387.711H295.871ZM143.885 399.332V405.231H146.299V406.319H143.885V414.19H142.593V399.332H143.885ZM134.314 409.447H135.164C137.085 409.447 140.026 409.277 141.454 408.971L141.59 410.042C139.992 410.348 137.051 410.552 134.467 410.552H133.005V400.879H140.06V401.967H134.314V409.447ZM159.376 414.19H158.067V399.332H159.376V414.19ZM156.18 409.634L155.364 410.62C154.021 409.702 152.27 407.866 151.692 406.081C151.148 407.934 149.618 409.753 147.901 410.977L147.051 410.008C149.227 408.648 151.012 405.945 151.012 403.31V400.624H152.321V403.259C152.321 405.979 154.123 408.41 156.18 409.634ZM178.551 414.19H177.242V399.332H178.551V414.19ZM175.355 409.634L174.539 410.62C173.196 409.702 171.445 407.866 170.867 406.081C170.323 407.934 168.793 409.753 167.076 410.977L166.226 410.008C168.402 408.648 170.187 405.945 170.187 403.31V400.624H171.496V403.259C171.496 405.979 173.298 408.41 175.355 409.634ZM194.433 412.303H181.02V411.215H187.055V407.577H182.635V400.59H192.835V401.661H183.944V406.506H192.92V407.577H188.347V411.215H194.433V412.303ZM208.258 414.19H206.983V406.489H205.198V413.442H203.94V399.689H205.198V405.401H206.983V399.332H208.258V414.19ZM202.818 407.849C202.818 409.634 201.492 410.807 199.571 410.807C197.667 410.807 196.324 409.549 196.324 407.849C196.324 406.047 197.667 404.874 199.571 404.874C201.492 404.874 202.818 406.064 202.818 407.849ZM201.577 407.849C201.577 406.71 200.744 405.962 199.571 405.962C198.398 405.962 197.582 406.71 197.582 407.849C197.582 409.005 198.398 409.736 199.571 409.736C200.744 409.736 201.577 408.971 201.577 407.849ZM203.09 404.024H195.695V402.953H203.09V404.024ZM201.492 401.593H197.429V400.471H201.492V401.593ZM227.687 405.316L227.075 406.404C224.644 405.979 222.281 404.483 221.601 403.089C221.006 404.483 218.694 406.013 216.161 406.438L215.566 405.35C217.997 405.095 220.87 403.531 220.938 401.457H216.127V400.386H227.075V401.457H222.298C222.366 403.548 225.409 405.061 227.687 405.316ZM222.23 414.19H220.938V408.869H214.903V407.781H228.316V408.869H222.23V414.19ZM242.192 414.19H240.917V399.332H242.192V414.19ZM239.251 413.442H237.993V405.775H235.358V404.687H237.993V399.689H239.251V413.442ZM237.092 409.498L236.293 410.45C235.154 409.634 233.59 407.866 233.114 406.183C232.791 407.883 231.567 409.821 230.088 410.892L229.289 409.923C230.972 408.852 232.468 406.319 232.468 403.412V400.709H233.743V403.378C233.743 406.268 235.477 408.427 237.092 409.498ZM256.374 404.177C256.374 406.472 254.232 408.002 251.002 408.002C247.806 408.002 245.664 406.472 245.664 404.177C245.664 401.882 247.806 400.318 251.002 400.318C254.249 400.318 256.374 401.882 256.374 404.177ZM255.133 404.177C255.133 402.511 253.501 401.389 251.002 401.389C248.537 401.389 246.905 402.511 246.905 404.177C246.905 405.843 248.537 406.965 251.002 406.965C253.484 406.965 255.133 405.843 255.133 404.177ZM257.734 412.303H244.321V411.215H247.636V408.444L248.928 408.41V411.215H253.076V408.41L254.368 408.444V411.215H257.734V412.303ZM259.098 412.711V411.198H260.577V412.711H259.098Z" fill="white"/>
<path d="M197.197 334.61C195.823 334.61 195.096 333.783 195.062 332.376L194.798 320.928C194.798 320.763 194.781 320.564 194.781 320.432C194.781 318.91 195.724 318 197.213 318C198.686 318 199.612 318.91 199.612 320.432C199.612 320.564 199.612 320.763 199.595 320.928L199.347 332.376C199.298 333.783 198.57 334.61 197.197 334.61ZM197.197 342.65C195.691 342.65 194.5 341.509 194.5 340.053C194.5 338.597 195.691 337.455 197.197 337.455C198.702 337.455 199.893 338.597 199.893 340.053C199.893 341.509 198.702 342.65 197.197 342.65Z" fill="#F43000"/>
<circle cx="197" cy="330.5" r="22.5" stroke="#F43000" stroke-width="3" stroke-linecap="round" stroke-linejoin="round"/>
</g>
<defs>
<filter id="filter0_d_169_510" x="128" y="420" width="138" height="100" filterUnits="userSpaceOnUse" color-interpolation-filters="sRGB">
<feFlood flood-opacity="0" result="BackgroundImageFix"/>
<feColorMatrix in="SourceAlpha" type="matrix" values="0 0 0 0 0 0 0 0 0 0 0 0 0 0 0 0 0 0 127 0" result="hardAlpha"/>
<feOffset dy="4"/>
<feGaussianBlur stdDeviation="12"/>
<feComposite in2="hardAlpha" operator="out"/>
<feColorMatrix type="matrix" values="0 0 0 0 0 0 0 0 0 0 0 0 0 0 0 0 0 0 0.88 0"/>
<feBlend mode="normal" in2="BackgroundImageFix" result="effect1_dropShadow_169_510"/>
<feBlend mode="normal" in="SourceGraphic" in2="effect1_dropShadow_169_510" result="shape"/>
</filter>
<clipPath id="clip0_169_510">
<rect width="393" height="852" fill="white"/>
</clipPath>
<clipPath id="clip1_169_510">
<rect width="134" height="5" fill="white" transform="translate(130 839)"/>
</clipPath>
</defs>
</svg>
