<svg width="393" height="852" viewBox="0 0 393 852" fill="none" xmlns="http://www.w3.org/2000/svg">
<g clip-path="url(#clip0_169_456)">
<rect width="393" height="852" fill="#010101"/>
<g clip-path="url(#clip1_169_456)">
<rect x="130" y="839" width="134" height="5" rx="2.5" fill="white"/>
</g>
<rect opacity="0.35" x="354.833" y="17.8333" width="21" height="10.3333" rx="2.16667" stroke="white"/>
<path opacity="0.4" d="M377.333 21V25C378.138 24.6612 378.661 23.8731 378.661 23C378.661 22.1269 378.138 21.3388 377.333 21Z" fill="white"/>
<rect x="356.333" y="19.3333" width="18" height="7.33333" rx="1.33333" fill="white"/>
<path fill-rule="evenodd" clip-rule="evenodd" d="M339.448 25.7573C340.729 24.675 342.605 24.675 343.886 25.7573C343.95 25.8155 343.987 25.8981 343.989 25.9848C343.991 26.0714 343.956 26.1546 343.895 26.2153L341.89 28.2377C341.831 28.2971 341.751 28.3305 341.667 28.3305C341.583 28.3305 341.503 28.2971 341.444 28.2377L339.438 26.2153C339.377 26.1546 339.343 26.0712 339.345 25.9848C339.347 25.8981 339.384 25.8154 339.448 25.7573ZM336.772 23.06C339.532 20.4956 343.804 20.4957 346.563 23.06C346.626 23.1201 346.661 23.2029 346.662 23.2895C346.663 23.3758 346.629 23.4587 346.568 23.52L345.409 24.6908C345.29 24.8102 345.097 24.812 344.975 24.6957C344.069 23.876 342.889 23.4222 341.667 23.4223C340.446 23.4228 339.268 23.8767 338.362 24.6957C338.24 24.8121 338.046 24.8104 337.927 24.6908L336.769 23.52C336.707 23.4588 336.673 23.3759 336.674 23.2895C336.675 23.203 336.71 23.1201 336.772 23.06ZM334.097 20.3696C338.328 16.3175 345.004 16.3176 349.236 20.3696C349.298 20.4298 349.333 20.5122 349.333 20.5981C349.333 20.6838 349.3 20.7667 349.239 20.8276L348.079 21.9975C347.96 22.1176 347.765 22.1187 347.644 22.0004C346.031 20.469 343.892 19.6148 341.667 19.6147C339.442 19.6147 337.302 20.4688 335.689 22.0004C335.568 22.1188 335.374 22.1176 335.255 21.9975L334.094 20.8276C334.033 20.7667 334 20.6838 334 20.5981C334.001 20.5122 334.035 20.4297 334.097 20.3696Z" fill="white"/>
<path d="M314 24.3335C314.552 24.3335 315 24.7812 315 25.3335V27.3335C315 27.8856 314.552 28.3335 314 28.3335H313C312.448 28.3335 312 27.8856 312 27.3335V25.3335C312 24.7812 312.448 24.3335 313 24.3335H314ZM318.667 22.3335C319.219 22.3337 319.667 22.7813 319.667 23.3335V27.3335C319.667 27.8855 319.219 28.3333 318.667 28.3335H317.667C317.115 28.3335 316.667 27.8856 316.667 27.3335V23.3335C316.667 22.7812 317.115 22.3335 317.667 22.3335H318.667ZM323.333 19.9995C323.885 19.9995 324.333 20.4474 324.333 20.9995V27.3335C324.333 27.8856 323.885 28.3335 323.333 28.3335H322.333C321.781 28.3333 321.333 27.8855 321.333 27.3335V20.9995C321.333 20.4475 321.781 19.9997 322.333 19.9995H323.333ZM328 17.6665C328.552 17.6665 329 18.1142 329 18.6665V27.3335C329 27.8856 328.552 28.3335 328 28.3335H327C326.448 28.3335 326 27.8856 326 27.3335V18.6665C326 18.1142 326.448 17.6665 327 17.6665H328Z" fill="white"/>
<path d="M36.2146 17.1675C33.9222 17.1675 32.2889 18.7349 32.2889 20.8809V20.8955C32.2889 22.9023 33.7098 24.3818 35.7386 24.3818C37.1888 24.3818 38.1116 23.6421 38.4998 22.8071H38.6463C38.6463 22.8877 38.639 22.9683 38.639 23.0488C38.5584 25.0703 37.8479 26.7109 36.1707 26.7109C35.2405 26.7109 34.5887 26.2275 34.3104 25.4878L34.2884 25.4146H32.428L32.4427 25.4951C32.7796 27.1138 34.2298 28.2637 36.1707 28.2637C38.8294 28.2637 40.4334 26.1543 40.4334 22.5947V22.5801C40.4334 18.7715 38.4705 17.1675 36.2146 17.1675ZM36.2073 22.9316C35.0062 22.9316 34.1346 22.0527 34.1346 20.8296V20.8149C34.1346 19.6357 35.0647 18.7056 36.2293 18.7056C37.4012 18.7056 38.3167 19.6504 38.3167 20.8589V20.8735C38.3167 22.0674 37.4012 22.9316 36.2073 22.9316ZM43.4586 21.1519C44.1324 21.1519 44.6231 20.6392 44.6231 19.9946C44.6231 19.3428 44.1324 18.8374 43.4586 18.8374C42.7921 18.8374 42.294 19.3428 42.294 19.9946C42.294 20.6392 42.7921 21.1519 43.4586 21.1519ZM43.4586 26.5864C44.1324 26.5864 44.6231 26.0811 44.6231 25.4292C44.6231 24.7773 44.1324 24.272 43.4586 24.272C42.7921 24.272 42.294 24.7773 42.294 25.4292C42.294 26.0811 42.7921 26.5864 43.4586 26.5864ZM51.6107 28H53.4198V25.9712H54.8407V24.4111H53.4198V17.4312H50.7465C49.3109 19.6138 47.8095 22.0454 46.4398 24.4258V25.9712H51.6107V28ZM48.1977 24.4551V24.3452C49.223 22.5508 50.4462 20.5952 51.5302 18.9399H51.64V24.4551H48.1977ZM58.9206 28H60.8103V17.4312H58.9279L56.1667 19.3721V21.1519L58.7961 19.2915H58.9206V28Z" fill="white"/>
<g filter="url(#filter0_d_169_456)">
<rect x="152" y="440" width="90" height="52" rx="26" fill="white"/>
<rect x="152.5" y="440.5" width="89" height="51" rx="25.5" stroke="white" stroke-opacity="0.05"/>
</g>
<path d="M188.43 473.343H186.322V465.829H185.302V472.663H183.211V458.434H185.302V464.061H186.322V458.196H188.43V473.343ZM183.109 468.124L181.936 469.807C180.95 469.178 179.59 467.58 179.216 466.254C178.927 467.546 177.448 469.467 176.275 470.147L175.085 468.583C177.482 467.121 178.162 464.843 178.162 462.089V461.443H175.748V459.675H182.531V461.443H180.338V462.072C180.338 464.911 180.848 466.713 183.109 468.124ZM202.816 473.343H200.521V458.196H202.816V473.343ZM199.875 468.09L198.566 469.892C197.291 469.195 195.54 467.546 195.098 466.05C194.707 467.614 192.973 469.552 191.596 470.249L190.185 468.515C192.803 466.968 193.891 464.707 193.891 461.528V459.437H196.237V461.46C196.237 464.622 197.495 466.764 199.875 468.09ZM216.964 466.492H212.884V469.705H218.613V471.473H204.928V469.705H210.657V466.492H206.679V459.233H216.879V461.035H208.94V464.724H216.964V466.492Z" fill="#010101"/>
<path d="M106.45 389.19H105.175V374.332H106.45V389.19ZM102.2 380.384H98.7154V379.313H102.2V374.689H103.475V388.425H102.2V380.384ZM100.908 383.75L101.061 384.872C99.8374 385.127 97.4064 385.382 95.5364 385.382H94.7204V375.879H96.0124V384.243C97.6274 384.243 100.007 383.954 100.908 383.75ZM120.003 380.095H111.571V382.407H120.445V383.495H110.262V375.76H120.292V376.848H111.571V379.007H120.003V380.095ZM122.043 387.303H108.63V386.215H122.043V387.303ZM132.043 378.14C132.043 379.993 130.428 381.285 128.15 381.285C125.838 381.285 124.24 379.993 124.24 378.14C124.24 376.236 125.838 374.944 128.15 374.944C130.445 374.944 132.043 376.236 132.043 378.14ZM135.528 389.19H134.253V385.637H130.853V384.566H134.253V374.332H135.528V389.19ZM130.785 378.14C130.785 376.78 129.629 376.032 128.15 376.032C126.654 376.032 125.481 376.78 125.481 378.14C125.481 379.449 126.654 380.197 128.15 380.197C129.629 380.197 130.785 379.449 130.785 378.14ZM128.711 388.748H127.419V383.495C126.025 383.563 124.699 383.563 123.356 383.58L123.169 382.458C124.937 382.458 126.552 382.441 128.184 382.373C130.037 382.305 131.737 382.203 133.182 382.033L133.284 383.053C132.162 383.206 130.36 383.342 128.711 383.427V388.748ZM149.744 375.964V377.868C149.727 379.857 149.506 383.257 149.064 385.144L147.823 384.974C147.976 384.277 148.163 382.747 148.265 381.2L139.476 381.659L139.221 380.52L148.333 380.197C148.367 379.602 148.401 379.058 148.401 378.565V377.035H139.68V375.964H149.744ZM151.461 387.031H138.048V385.943H151.461V387.031ZM168.069 377.511H165.366V376.44H168.069V374.332H169.361V385.127H168.069V381.319H165.366V380.248H168.069V377.511ZM169.684 388.697H159.756V384.175H161.048V387.626H169.684V388.697ZM161.167 375.335C163.343 375.335 165.026 376.848 165.026 379.058C165.026 381.268 163.36 382.747 161.184 382.747C158.991 382.747 157.308 381.285 157.308 379.058C157.308 376.865 158.991 375.335 161.167 375.335ZM161.167 376.474C159.688 376.474 158.583 377.545 158.583 379.058C158.583 380.554 159.705 381.608 161.184 381.608C162.714 381.608 163.768 380.554 163.768 379.058C163.768 377.545 162.714 376.474 161.167 376.474ZM184.631 389.105H174.465V385.365H182.778V383.733H174.414V382.713H184.07V386.3H175.757V388.085H184.631V389.105ZM179.531 375.148C179.225 379.058 176.471 381.438 172.765 382.509L172.119 381.455C175.383 380.639 177.559 378.667 178.052 376.236H172.748V375.148H179.531ZM179.684 377.545V376.525H182.778V374.332H184.07V381.897H182.778V380.299H179.497V379.262H182.778V377.545H179.684ZM190.143 375.624C192.2 375.624 193.305 377.511 193.407 380.214H195.005V374.621H196.263V388.476H195.005V381.285H193.407C193.271 383.971 192.183 385.79 190.143 385.79C187.984 385.79 186.879 383.699 186.879 380.707C186.879 377.732 187.984 375.624 190.143 375.624ZM192.132 380.707C192.132 378.31 191.35 376.763 190.143 376.763C188.953 376.763 188.188 378.31 188.188 380.707C188.188 383.121 188.953 384.651 190.143 384.651C191.35 384.651 192.132 383.121 192.132 380.707ZM199.17 389.19H197.895V374.332H199.17V389.19ZM217.954 381.931H216.662V374.332H217.954V381.931ZM214.69 380.622L213.959 381.625C212.48 381.047 210.984 379.823 210.287 378.259C209.828 379.789 208.281 381.234 206.496 382.084L205.782 381.098C207.703 380.333 209.59 378.548 209.59 376.168V374.842H210.899V376.117C210.899 378.514 212.854 379.959 214.69 380.622ZM218.515 389.02H208.298V385.331H216.662V383.801H208.264V382.747H217.954V386.3H209.59V387.966H218.515V389.02ZM233.088 389.19H231.83V381.455H230.028V388.425H228.77V374.689H230.028V380.384H231.83V374.332H233.088V389.19ZM228.005 385.042C227.223 385.178 225.88 385.297 224.554 385.382C223.177 385.45 221.783 385.518 220.525 385.535L220.321 384.379H222.14C221.97 382.356 221.817 380.265 221.664 378.242L222.956 378.089C223.075 380.146 223.228 382.271 223.347 384.362C223.738 384.362 224.095 384.328 224.486 384.311C224.605 384.311 224.741 384.311 224.877 384.294C225.013 382.254 225.132 380.112 225.285 378.055L226.577 378.191C226.407 380.18 226.22 382.22 226.033 384.209C226.747 384.158 227.41 384.09 227.92 384.022C227.971 384.362 227.988 384.702 228.005 385.042ZM227.546 377.29H220.593V376.202H227.546V377.29ZM247.763 383.75H246.471V379.619H244.703V383.529H243.462V374.604H244.703V378.531H246.471V374.332H247.763V383.75ZM242.17 381.149C242.17 382.594 240.793 383.427 238.974 383.427C237.138 383.427 235.761 382.594 235.761 381.149C235.761 379.687 237.138 378.837 238.974 378.837C240.793 378.837 242.17 379.687 242.17 381.149ZM248.035 389.173C247.015 388.731 245.706 387.609 245.349 386.555C245.026 387.66 243.853 388.799 242.51 389.411L241.796 388.459C243.547 387.711 244.686 386.504 244.686 384.566V384.107H245.961V384.515C245.961 386.351 247.355 387.779 248.834 388.272L248.035 389.173ZM242.442 387.133L241.745 388.085C241.031 387.796 240.232 387.184 239.858 386.3C239.518 387.405 238.311 388.646 236.883 389.207L236.169 388.289C237.835 387.609 239.178 386.385 239.178 384.447V384.124H240.453V384.345C240.453 385.994 241.303 386.776 242.442 387.133ZM240.929 381.149C240.929 380.384 240.079 379.857 238.974 379.857C237.852 379.857 237.002 380.384 237.002 381.149C237.002 381.897 237.852 382.441 238.974 382.441C240.096 382.441 240.929 381.897 240.929 381.149ZM242.697 378.225H235.166V377.154H242.697V378.225ZM240.895 376.083H237.036V374.961H240.895V376.083ZM262.659 378.922L262.047 380.044C259.803 379.619 257.389 378.208 256.658 376.661C256.012 378.208 253.547 379.602 251.303 380.044L250.691 378.922C253.02 378.667 255.995 377.086 255.995 374.995V374.519H257.338V374.995C257.338 377.086 260.364 378.667 262.659 378.922ZM263.356 382.305H249.943V381.217H263.356V382.305ZM261.656 388.986H251.66V383.359H252.952V385.093H260.347V383.342H261.656V388.986ZM260.347 387.915V386.147H252.952V387.915H260.347ZM276.688 374.332V389.19H275.413V374.332H276.688ZM273.9 383.733L274.019 384.855C272.302 385.246 268.426 385.535 266.148 385.535H265.485V375.879H266.794V384.396C268.698 384.396 272.132 384.124 273.9 383.733ZM290.819 374.332V380.231H293.233V381.319H290.819V389.19H289.527V374.332H290.819ZM281.248 384.447H282.098C284.019 384.447 286.96 384.277 288.388 383.971L288.524 385.042C286.926 385.348 283.985 385.552 281.401 385.552H279.939V375.879H286.994V376.967H281.248V384.447ZM294.138 387.711V386.198H295.617V387.711H294.138ZM144.385 399.332V405.231H146.799V406.319H144.385V414.19H143.093V399.332H144.385ZM134.814 409.447H135.664C137.585 409.447 140.526 409.277 141.954 408.971L142.09 410.042C140.492 410.348 137.551 410.552 134.967 410.552H133.505V400.879H140.56V401.967H134.814V409.447ZM159.876 414.19H158.567V399.332H159.876V414.19ZM156.68 409.634L155.864 410.62C154.521 409.702 152.77 407.866 152.192 406.081C151.648 407.934 150.118 409.753 148.401 410.977L147.551 410.008C149.727 408.648 151.512 405.945 151.512 403.31V400.624H152.821V403.259C152.821 405.979 154.623 408.41 156.68 409.634ZM179.051 414.19H177.742V399.332H179.051V414.19ZM175.855 409.634L175.039 410.62C173.696 409.702 171.945 407.866 171.367 406.081C170.823 407.934 169.293 409.753 167.576 410.977L166.726 410.008C168.902 408.648 170.687 405.945 170.687 403.31V400.624H171.996V403.259C171.996 405.979 173.798 408.41 175.855 409.634ZM194.933 412.303H181.52V411.215H187.555V407.577H183.135V400.59H193.335V401.661H184.444V406.506H193.42V407.577H188.847V411.215H194.933V412.303ZM208.758 414.19H207.483V406.489H205.698V413.442H204.44V399.689H205.698V405.401H207.483V399.332H208.758V414.19ZM203.318 407.849C203.318 409.634 201.992 410.807 200.071 410.807C198.167 410.807 196.824 409.549 196.824 407.849C196.824 406.047 198.167 404.874 200.071 404.874C201.992 404.874 203.318 406.064 203.318 407.849ZM202.077 407.849C202.077 406.71 201.244 405.962 200.071 405.962C198.898 405.962 198.082 406.71 198.082 407.849C198.082 409.005 198.898 409.736 200.071 409.736C201.244 409.736 202.077 408.971 202.077 407.849ZM203.59 404.024H196.195V402.953H203.59V404.024ZM201.992 401.593H197.929V400.471H201.992V401.593ZM228.187 405.316L227.575 406.404C225.144 405.979 222.781 404.483 222.101 403.089C221.506 404.483 219.194 406.013 216.661 406.438L216.066 405.35C218.497 405.095 221.37 403.531 221.438 401.457H216.627V400.386H227.575V401.457H222.798C222.866 403.548 225.909 405.061 228.187 405.316ZM222.73 414.19H221.438V408.869H215.403V407.781H228.816V408.869H222.73V414.19ZM242.692 414.19H241.417V399.332H242.692V414.19ZM239.751 413.442H238.493V405.775H235.858V404.687H238.493V399.689H239.751V413.442ZM237.592 409.498L236.793 410.45C235.654 409.634 234.09 407.866 233.614 406.183C233.291 407.883 232.067 409.821 230.588 410.892L229.789 409.923C231.472 408.852 232.968 406.319 232.968 403.412V400.709H234.243V403.378C234.243 406.268 235.977 408.427 237.592 409.498ZM256.874 404.177C256.874 406.472 254.732 408.002 251.502 408.002C248.306 408.002 246.164 406.472 246.164 404.177C246.164 401.882 248.306 400.318 251.502 400.318C254.749 400.318 256.874 401.882 256.874 404.177ZM255.633 404.177C255.633 402.511 254.001 401.389 251.502 401.389C249.037 401.389 247.405 402.511 247.405 404.177C247.405 405.843 249.037 406.965 251.502 406.965C253.984 406.965 255.633 405.843 255.633 404.177ZM258.234 412.303H244.821V411.215H248.136V408.444L249.428 408.41V411.215H253.576V408.41L254.868 408.444V411.215H258.234V412.303ZM259.598 412.711V411.198H261.077V412.711H259.598Z" fill="white"/>
<path d="M180.984 338.248L182.532 336.7C190.226 329.005 202.701 329.005 210.396 336.7L211.944 338.248M174.792 332.056L176.34 330.508C187.454 319.394 205.474 319.394 216.588 330.508L218.136 332.056M168.6 325.864L170.148 324.316C184.682 309.782 208.246 309.782 222.78 324.316L224.328 325.864M200.334 342.118C202.471 344.255 202.471 347.72 200.334 349.858C198.197 351.995 194.731 351.995 192.594 349.858C190.457 347.72 190.457 344.255 192.594 342.118C194.731 339.98 198.197 339.98 200.334 342.118Z" stroke="#F43000" stroke-width="3.28379" stroke-linecap="round" stroke-linejoin="round"/>
</g>
<defs>
<filter id="filter0_d_169_456" x="128" y="420" width="138" height="100" filterUnits="userSpaceOnUse" color-interpolation-filters="sRGB">
<feFlood flood-opacity="0" result="BackgroundImageFix"/>
<feColorMatrix in="SourceAlpha" type="matrix" values="0 0 0 0 0 0 0 0 0 0 0 0 0 0 0 0 0 0 127 0" result="hardAlpha"/>
<feOffset dy="4"/>
<feGaussianBlur stdDeviation="12"/>
<feComposite in2="hardAlpha" operator="out"/>
<feColorMatrix type="matrix" values="0 0 0 0 0 0 0 0 0 0 0 0 0 0 0 0 0 0 0.88 0"/>
<feBlend mode="normal" in2="BackgroundImageFix" result="effect1_dropShadow_169_456"/>
<feBlend mode="normal" in="SourceGraphic" in2="effect1_dropShadow_169_456" result="shape"/>
</filter>
<clipPath id="clip0_169_456">
<rect width="393" height="852" fill="white"/>
</clipPath>
<clipPath id="clip1_169_456">
<rect width="134" height="5" fill="white" transform="translate(130 839)"/>
</clipPath>
</defs>
</svg>
