<svg width="258" height="86" viewBox="0 0 258 86" fill="none" xmlns="http://www.w3.org/2000/svg">
<g clip-path="url(#clip0_38_256)">
<path d="M253.928 10.6937C253.566 8.69917 252.547 7.19518 250.855 6.20113C249.171 5.18126 246.815 4.67133 243.774 4.67133H230.161L215.928 50.6688H229.541C232.582 50.6688 235.254 50.1717 237.558 49.1712C239.869 48.1514 241.825 46.6538 243.413 44.6786C245.027 42.7034 246.292 40.2183 247.221 37.2168L253.14 18.091C254.057 15.1347 254.322 12.6689 253.928 10.6937ZM236.881 37.2491C236.558 38.2883 236.106 39.1726 235.519 39.8956C234.964 40.5992 234.26 41.1414 233.421 41.5222C232.601 41.903 231.652 42.0967 230.568 42.0967H228.689L237.616 13.2499H239.495C240.56 13.2499 241.393 13.4435 241.993 13.8243C242.6 14.2052 242.955 14.7603 243.077 15.4832C243.219 16.1868 243.135 17.0582 242.813 18.0975L236.881 37.2555V37.2491Z" fill="#F43000"/>
<path d="M218.872 5.72345C217.142 4.57448 214.921 4 212.197 4C209.473 4 206.865 4.57448 204.426 5.72345C201.992 6.8466 199.875 8.45386 198.061 10.5388C196.247 12.6237 194.905 15.0766 194.027 17.9038L187.978 37.4427C187.101 40.2699 186.926 42.7228 187.456 44.8077C187.978 46.8926 189.108 48.5064 190.832 49.6553C192.568 50.7785 194.801 51.3465 197.545 51.3465C200.288 51.3465 202.838 50.7849 205.271 49.6553C207.711 48.5064 209.835 46.8926 211.649 44.8077C213.462 42.7228 214.805 40.2699 215.683 37.4427L221.731 17.9038C222.609 15.0766 222.783 12.6237 222.254 10.5388C221.731 8.45386 220.601 6.85305 218.865 5.72345H218.872ZM205.045 38.4626C204.787 39.2888 204.419 40.0117 203.928 40.6314C203.47 41.2253 202.922 41.6965 202.283 42.0321C201.669 42.3742 200.998 42.5421 200.275 42.5421C199.552 42.5421 198.945 42.3742 198.519 42.0321C198.093 41.69 197.835 41.2253 197.745 40.6314C197.661 40.0182 197.745 39.2953 198.003 38.4626L204.684 16.8839C204.942 16.0577 205.297 15.3412 205.762 14.7474C206.226 14.1342 206.782 13.65 207.414 13.3144C208.053 12.9723 208.737 12.8044 209.486 12.8044C210.235 12.8044 210.784 12.9723 211.21 13.3144C211.642 13.6307 211.9 14.1019 211.984 14.7151C212.068 15.3283 211.984 16.0512 211.726 16.8839L205.045 38.4626Z" fill="#F43000"/>
<path d="M173.733 37.3459H173.513L180.278 4.67133H170.17L156.743 37.3459H156.556L164.018 4.67133H154.549L146.37 50.6688H157.692L170.738 18.9172H170.957L164.321 50.6688H175.637L195.931 4.67133H186.462L173.733 37.3459Z" fill="#F43000"/>
<path d="M143.569 28.4188C144.821 26.9729 145.777 25.2107 146.416 23.1258L148.746 15.5994C149.462 13.2821 149.643 11.3198 149.294 9.69966C148.952 8.06012 148.094 6.82078 146.719 5.96874C145.351 5.09733 143.479 4.66486 141.097 4.66486H126.115L111.882 50.6623H121.99L127.277 33.5762H129.349L128.11 50.6623H138.599L139.419 31.6333C140.935 30.9104 142.323 29.8389 143.569 28.4123V28.4188ZM136.036 23.1903C135.726 24.1908 135.216 24.9525 134.5 25.4883C133.79 25.9982 132.906 26.2564 131.841 26.2564H129.543L133.745 12.6754H136.043C137.108 12.6754 137.831 12.94 138.218 13.4693C138.612 13.9792 138.65 14.7474 138.334 15.7672L136.036 23.1968V23.1903Z" fill="#F43000"/>
<path d="M86.6305 50.6688H107.925L110.585 42.0967H99.3918L102.684 31.4461H113.27L115.729 23.5066H105.143L108.319 13.2434H119.512L122.165 4.67133H100.87L86.6305 50.6688Z" fill="#F43000"/>
<path d="M70.5127 13.2434H77.7809L66.2008 50.6688H76.3027L87.8827 13.2434H95.1832L97.8426 4.67133H73.1656L70.5127 13.2434Z" fill="#F43000"/>
<path d="M35.6629 50.6688H45.797L51.2708 32.9759H61.4759L64.0062 24.7847H53.8075L57.3771 13.2434H68.5375L71.1905 4.67133H49.8959L35.6629 50.6688Z" fill="#F43000"/>
<path d="M34.9786 4.67133H25.4125L3.20775 50.6688H13.471L17.0083 42.4452H23.9408L22.3981 50.6688H32.6291L38.8967 4.67133H34.9786ZM20.3325 34.7317L28.9046 14.8055H29.1305L25.3931 34.7317H20.3325Z" fill="#F43000"/>
</g>
<path d="M109.654 80.2148C108.738 80.2148 107.932 80.0215 107.237 79.6348C106.55 79.2409 106.013 78.693 105.626 77.9912C105.239 77.2894 105.046 76.4694 105.046 75.5312V68.957C105.046 68.026 105.239 67.2096 105.626 66.5078C106.013 65.806 106.55 65.2617 107.237 64.875C107.932 64.4811 108.741 64.2842 109.665 64.2842C110.56 64.2842 111.344 64.4668 112.018 64.832C112.698 65.1901 113.228 65.7129 113.607 66.4004C113.987 67.0807 114.177 67.8971 114.177 68.8496L114.188 70.665H110.868V68.5703C110.861 68.2982 110.811 68.0583 110.718 67.8506C110.632 67.6429 110.503 67.4854 110.331 67.3779C110.166 67.2633 109.966 67.2061 109.729 67.2061C109.479 67.2061 109.264 67.2669 109.085 67.3887C108.906 67.5104 108.77 67.6787 108.677 67.8936C108.584 68.1084 108.537 68.3519 108.537 68.624V75.875C108.537 76.1543 108.584 76.4014 108.677 76.6162C108.77 76.8311 108.906 76.9993 109.085 77.1211C109.264 77.2357 109.479 77.293 109.729 77.293C109.966 77.293 110.166 77.2393 110.331 77.1318C110.503 77.0173 110.632 76.8597 110.718 76.6592C110.811 76.4515 110.861 76.208 110.868 75.9287V73.834H114.188V75.6494C114.173 76.5947 113.976 77.4111 113.597 78.0986C113.224 78.779 112.701 79.3018 112.028 79.667C111.355 80.0322 110.564 80.2148 109.654 80.2148ZM116.81 80V64.499H120.236V77.1533H123.996V80H116.81ZM130.732 80.2148C129.823 80.2148 129.024 80.0358 128.337 79.6777C127.657 79.3125 127.127 78.7969 126.747 78.1309C126.368 77.4648 126.178 76.6699 126.178 75.7461V64.499H129.604V75.8213C129.604 76.1364 129.647 76.4049 129.733 76.627C129.826 76.8418 129.955 77.0065 130.12 77.1211C130.292 77.2357 130.496 77.293 130.732 77.293C130.969 77.293 131.169 77.2357 131.334 77.1211C131.506 77.0065 131.638 76.8418 131.731 76.627C131.825 76.4049 131.871 76.1364 131.871 75.8213V64.499H135.298V75.7461C135.298 76.6699 135.108 77.4648 134.729 78.1309C134.349 78.7969 133.815 79.3125 133.128 79.6777C132.448 80.0358 131.649 80.2148 130.732 80.2148ZM139.896 80V77.4648H142.496C142.897 77.4648 143.191 77.3682 143.377 77.1748C143.57 76.9743 143.667 76.6699 143.667 76.2617V74.3604C143.667 74.0667 143.624 73.8304 143.538 73.6514C143.452 73.4652 143.323 73.3291 143.151 73.2432C142.979 73.1572 142.757 73.1143 142.485 73.1143H139.896V70.9121H142.389C142.783 70.9121 143.062 70.8262 143.227 70.6543C143.398 70.4753 143.484 70.1816 143.484 69.7734V68.1621C143.484 67.7682 143.398 67.4818 143.227 67.3027C143.055 67.1237 142.783 67.0342 142.41 67.0342H139.896V64.499H143.431C144.161 64.499 144.777 64.6208 145.278 64.8643C145.787 65.1006 146.174 65.4551 146.438 65.9277C146.711 66.4004 146.847 66.9876 146.847 67.6895V69.0537C146.847 69.6481 146.757 70.1351 146.578 70.5146C146.399 70.8942 146.152 71.1878 145.837 71.3955C145.522 71.596 145.153 71.7249 144.73 71.7822V71.8574C145.217 71.929 145.644 72.0794 146.009 72.3086C146.374 72.5378 146.657 72.8672 146.857 73.2969C147.058 73.7266 147.158 74.2673 147.158 74.9189V76.3799C147.158 77.1462 147.015 77.8014 146.729 78.3457C146.442 78.8828 146.02 79.2946 145.461 79.5811C144.91 79.8604 144.229 80 143.42 80H139.896ZM138.178 80V64.499H141.604V80H138.178Z" fill="#F43000"/>
<rect x="5" y="75" width="6" height="40" transform="rotate(-90 5 75)" fill="#F43000"/>
<rect x="45" y="77" width="10" height="3" transform="rotate(-90 45 77)" fill="#F43000"/>
<rect x="5" y="73.5" width="3" height="86" transform="rotate(-90 5 73.5)" fill="#F43000"/>
<rect width="6" height="40" transform="matrix(4.37114e-08 -1 -1 -4.37114e-08 247 75)" fill="#F43000"/>
<rect width="10" height="3" transform="matrix(4.37114e-08 -1 -1 -4.37114e-08 208 77)" fill="#F43000"/>
<rect width="3" height="86" transform="matrix(4.37114e-08 -1 -1 -4.37114e-08 247 73.5)" fill="#F43000"/>
<defs>
<clipPath id="clip0_38_256">
<rect width="250.895" height="47.34" fill="white" transform="translate(3.20776 4)"/>
</clipPath>
</defs>
</svg>
