<svg width="78" height="26" viewBox="0 0 78 26" fill="none" xmlns="http://www.w3.org/2000/svg">
<g opacity="0.3">
<g clip-path="url(#clip0_70_770)">
<path d="M76.769 3.23296C76.6597 2.62995 76.3514 2.17526 75.8401 1.87473C75.3307 1.5664 74.6184 1.41223 73.6993 1.41223H69.5836L65.2806 15.3184H69.3963C70.3154 15.3184 71.1234 15.1682 71.82 14.8657C72.5187 14.5574 73.11 14.1046 73.59 13.5075C74.0779 12.9103 74.4604 12.159 74.7414 11.2516L76.5309 5.46935C76.808 4.57557 76.888 3.83011 76.769 3.23296ZM71.6151 11.2613C71.5176 11.5755 71.3809 11.8429 71.2034 12.0614C71.0355 12.2741 70.8228 12.4381 70.5691 12.5532C70.3213 12.6683 70.0344 12.7269 69.7066 12.7269H69.1387L71.8376 4.00574H72.4055C72.7275 4.00574 72.9792 4.06428 73.1607 4.17942C73.3441 4.29456 73.4515 4.46238 73.4885 4.68095C73.5315 4.89366 73.5061 5.15711 73.4085 5.4713L71.6151 11.2633V11.2613Z" fill="white"/>
<path d="M66.1705 1.73033C65.6475 1.38297 64.9762 1.20929 64.1527 1.20929C63.3292 1.20929 62.5408 1.38297 61.8031 1.73033C61.0674 2.06989 60.4273 2.55581 59.879 3.18613C59.3306 3.81646 58.9247 4.55802 58.6593 5.41276L56.8308 11.3199C56.5654 12.1746 56.5127 12.9162 56.6727 13.5465C56.8308 14.1768 57.1723 14.6647 57.6933 15.0121C58.2183 15.3516 58.8935 15.5233 59.7228 15.5233C60.5522 15.5233 61.323 15.3536 62.0588 15.0121C62.7964 14.6647 63.4384 14.1768 63.9868 13.5465C64.5352 12.9162 64.9411 12.1746 65.2065 11.3199L67.035 5.41276C67.3004 4.55802 67.3531 3.81646 67.1931 3.18613C67.035 2.55581 66.6935 2.07184 66.1686 1.73033H66.1705ZM61.9904 11.6282C61.9124 11.878 61.8012 12.0966 61.6528 12.2839C61.5143 12.4634 61.3484 12.6059 61.1552 12.7074C60.9698 12.8108 60.7669 12.8615 60.5483 12.8615C60.3297 12.8615 60.1463 12.8108 60.0175 12.7074C59.8887 12.6039 59.8107 12.4634 59.7833 12.2839C59.758 12.0985 59.7833 11.8799 59.8614 11.6282L61.8812 5.10443C61.9592 4.85464 62.0666 4.63803 62.2071 4.45849C62.3476 4.2731 62.5154 4.12674 62.7066 4.02527C62.8998 3.92184 63.1067 3.8711 63.3331 3.8711C63.5594 3.8711 63.7253 3.92184 63.8541 4.02527C63.9849 4.12089 64.0629 4.26335 64.0883 4.44874C64.1137 4.63413 64.0883 4.85269 64.0102 5.10443L61.9904 11.6282Z" fill="white"/>
<path d="M52.5239 11.2906H52.4575L54.5027 1.41223H51.4467L47.3876 11.2906H47.331L49.5869 1.41223H46.7241L44.2516 15.3184H47.6745L51.6184 5.71913H51.6848L49.6786 15.3184H53.0996L59.235 1.41223H56.3722L52.5239 11.2906Z" fill="white"/>
<path d="M43.4046 8.59173C43.7832 8.1546 44.072 7.62185 44.2652 6.99152L44.9697 4.7161C45.1863 4.01553 45.241 3.42228 45.1356 2.93246C45.0321 2.43678 44.7726 2.0621 44.3569 1.80451C43.9432 1.54106 43.3773 1.41031 42.6572 1.41031H38.1278L33.8248 15.3165H36.8808L38.4791 10.151H39.1055L38.7308 15.3165H41.902L42.1498 9.56357C42.6084 9.345 43.028 9.02106 43.4046 8.58978V8.59173ZM41.1272 7.01104C41.0336 7.31352 40.8794 7.54379 40.6628 7.70576C40.4481 7.85993 40.1808 7.93799 39.8588 7.93799H39.1641L40.4345 3.83209H41.1292C41.4512 3.83209 41.6698 3.9121 41.7868 4.07212C41.9059 4.22629 41.9176 4.45851 41.822 4.76684L41.1272 7.01299V7.01104Z" fill="white"/>
<path d="M26.1906 15.3184H32.6285L33.4325 12.7269H30.0487L31.0439 9.50694H34.2443L34.9879 7.10663H31.7874L32.7476 4.00379H36.1314L36.9335 1.41223H30.4956L26.1906 15.3184Z" fill="white"/>
<path d="M21.3178 4.00379H23.5152L20.0142 15.3184H23.0683L26.5692 4.00379H28.7763L29.5803 1.41223H22.1199L21.3178 4.00379Z" fill="white"/>
<path d="M10.7818 15.3184H13.8456L15.5005 9.96944H18.5857L19.3507 7.49302H16.2674L17.3466 4.00379H20.7207L21.5227 1.41223H15.0848L10.7818 15.3184Z" fill="white"/>
<path d="M10.575 1.41223H7.68292L0.969849 15.3184H4.07269L5.1421 12.8323H7.23798L6.77158 15.3184H9.86466L11.7595 1.41223H10.575ZM6.14711 10.5002L8.73866 4.47604H8.80696L7.67706 10.5002H6.14711Z" fill="white"/>
</g>
<path d="M33.2598 23.9054C32.9762 23.9054 32.7283 23.8459 32.5161 23.7268C32.304 23.6056 32.1383 23.4378 32.0192 23.2234C31.9002 23.0091 31.8406 22.7601 31.8406 22.4765V20.5116C31.8406 20.228 31.9002 19.979 32.0192 19.7647C32.1383 19.5503 32.304 19.3836 32.5161 19.2645C32.7305 19.1433 32.9784 19.0827 33.2598 19.0827C33.5348 19.0827 33.7762 19.139 33.9841 19.2516C34.1919 19.362 34.3543 19.5211 34.4712 19.729C34.5881 19.9368 34.6477 20.1847 34.6498 20.4727V20.9988H33.6431V20.398C33.6409 20.307 33.6257 20.2291 33.5976 20.1641C33.5695 20.097 33.5283 20.0461 33.4742 20.0115C33.4201 19.9747 33.3551 19.9563 33.2793 19.9563C33.1992 19.9563 33.131 19.9769 33.0747 20.018C33.0184 20.057 32.9751 20.1111 32.9448 20.1804C32.9167 20.2475 32.9026 20.3254 32.9026 20.4142V22.5739C32.9026 22.6648 32.9167 22.7449 32.9448 22.8142C32.9751 22.8813 33.0184 22.9344 33.0747 22.9733C33.131 23.0123 33.2003 23.0318 33.2826 23.0318C33.3562 23.0318 33.419 23.0145 33.4709 22.9798C33.5251 22.943 33.5662 22.8922 33.5944 22.8272C33.6247 22.7623 33.6409 22.6832 33.6431 22.5901V21.9893H34.6498V22.5122C34.6477 22.8001 34.5881 23.048 34.4712 23.2559C34.3565 23.4637 34.1952 23.624 33.9873 23.7365C33.7795 23.8491 33.537 23.9054 33.2598 23.9054ZM35.553 23.8372V19.1509H36.5955V22.9863H37.7614V23.8372H35.553ZM39.9311 23.9022C39.6496 23.9022 39.4039 23.848 39.1939 23.7398C38.9839 23.6294 38.8204 23.4724 38.7035 23.2689C38.5866 23.0654 38.5281 22.8229 38.5281 22.5414V19.1509H39.5706V22.5544C39.5706 22.6583 39.5847 22.746 39.6128 22.8175C39.641 22.8867 39.6821 22.9398 39.7362 22.9766C39.7904 23.0134 39.8553 23.0318 39.9311 23.0318C40.0047 23.0318 40.0675 23.0134 40.1194 22.9766C40.1736 22.9398 40.2147 22.8867 40.2429 22.8175C40.2732 22.746 40.2883 22.6583 40.2883 22.5544V19.1509H41.3276V22.5414C41.3276 22.8229 41.2691 23.0654 41.1522 23.2689C41.0374 23.4724 40.8751 23.6294 40.6651 23.7398C40.455 23.848 40.2104 23.9022 39.9311 23.9022ZM42.8607 23.8372V23.0805H43.6662C43.7917 23.0805 43.8838 23.0502 43.9422 22.9896C44.0028 22.9268 44.0331 22.8305 44.0331 22.7005V22.1452C44.0331 22.0521 44.0191 21.9774 43.9909 21.9211C43.9649 21.8648 43.9249 21.8237 43.8708 21.7977C43.8166 21.7696 43.7474 21.7555 43.6629 21.7555H42.8607V21.093H43.6337C43.7571 21.093 43.8448 21.0659 43.8967 21.0118C43.9509 20.9555 43.9779 20.8624 43.9779 20.7325V20.2648C43.9779 20.1392 43.9509 20.0483 43.8967 19.992C43.8426 19.9357 43.7571 19.9076 43.6402 19.9076H42.8607V19.1509H43.952C44.175 19.1509 44.3633 19.1877 44.517 19.2613C44.6729 19.3327 44.7909 19.441 44.871 19.5861C44.9533 19.729 44.9944 19.9076 44.9944 20.1219V20.5279C44.9944 20.7076 44.9674 20.8548 44.9133 20.9696C44.8613 21.0843 44.7866 21.1731 44.6892 21.2359C44.5917 21.2965 44.4792 21.3355 44.3514 21.3528V21.3788C44.5008 21.3982 44.6307 21.4437 44.7411 21.5152C44.8537 21.5844 44.9403 21.684 45.0009 21.8139C45.0637 21.9438 45.0951 22.1073 45.0951 22.3043V22.7395C45.0951 22.9712 45.0507 23.1693 44.962 23.3338C44.8754 23.4984 44.7465 23.624 44.5755 23.7106C44.4045 23.795 44.1955 23.8372 43.9487 23.8372H42.8607ZM42.3411 23.8372V19.1509H43.3804V23.8372H42.3411Z" fill="white"/>
<rect x="1.5116" y="22.6744" width="1.81395" height="12.093" transform="rotate(-90 1.5116 22.6744)" fill="white"/>
<rect x="13.6047" y="23.279" width="3.02326" height="0.906977" transform="rotate(-90 13.6047 23.279)" fill="white"/>
<rect x="1.5116" y="22.2209" width="0.906976" height="26" transform="rotate(-90 1.5116 22.2209)" fill="white"/>
<rect width="1.81395" height="12.093" transform="matrix(4.37114e-08 -1 -1 -4.37114e-08 74.6743 22.6744)" fill="white"/>
<rect width="3.02326" height="0.906977" transform="matrix(4.37114e-08 -1 -1 -4.37114e-08 62.8838 23.279)" fill="white"/>
<rect width="0.906976" height="26" transform="matrix(4.37114e-08 -1 -1 -4.37114e-08 74.6743 22.2209)" fill="white"/>
</g>
<defs>
<clipPath id="clip0_70_770">
<rect width="75.8518" height="14.3121" fill="white" transform="translate(0.969788 1.20929)"/>
</clipPath>
</defs>
</svg>
