<svg width="94" height="32" viewBox="0 0 94 32" fill="none" xmlns="http://www.w3.org/2000/svg">
<g clip-path="url(#clip0_70_646)">
<path d="M92.5164 3.89617C92.3847 3.16947 92.0131 2.62151 91.397 2.25934C90.7832 1.88776 89.9248 1.70197 88.8171 1.70197H83.8572L78.6715 18.4607H83.6314C84.7391 18.4607 85.7127 18.2796 86.5523 17.9151C87.3942 17.5435 88.1068 16.9979 88.6854 16.2783C89.2733 15.5586 89.7343 14.6532 90.0729 13.5596L92.2295 6.59131C92.5635 5.51419 92.6599 4.61582 92.5164 3.89617ZM86.3054 13.5714C86.1878 13.95 86.0232 14.2722 85.8092 14.5356C85.6069 14.7919 85.3506 14.9895 85.0448 15.1283C84.7461 15.267 84.4004 15.3376 84.0053 15.3376H83.321L86.5735 4.82748H87.2578C87.6459 4.82748 87.9493 4.89803 88.168 5.03678C88.389 5.17554 88.5184 5.37779 88.5631 5.64119C88.6148 5.89753 88.5843 6.21502 88.4667 6.59366L86.3054 13.5737V13.5714Z" fill="#F43000"/>
<path d="M79.7439 2.08529C79.1136 1.66668 78.3046 1.45737 77.3121 1.45737C76.3197 1.45737 75.3696 1.66668 74.4806 2.08529C73.594 2.4945 72.8226 3.08009 72.1617 3.83972C71.5009 4.59934 71.0117 5.49301 70.6919 6.52309L68.4883 13.6419C68.1684 14.672 68.1049 15.5657 68.2978 16.3253C68.4883 17.0849 68.8998 17.6729 69.5278 18.0915C70.1604 18.5007 70.9741 18.7076 71.9736 18.7076C72.9731 18.7076 73.9021 18.503 74.7887 18.0915C75.6776 17.6729 76.4514 17.0849 77.1122 16.3253C77.7731 15.5657 78.2622 14.672 78.5821 13.6419L80.7857 6.52309C81.1055 5.49301 81.169 4.59934 80.9762 3.83972C80.7857 3.08009 80.3741 2.49685 79.7415 2.08529H79.7439ZM74.7064 14.0135C74.6123 14.3145 74.4782 14.5779 74.2995 14.8037C74.1325 15.0201 73.9326 15.1917 73.6998 15.314C73.4764 15.4387 73.2318 15.4998 72.9684 15.4998C72.705 15.4998 72.4839 15.4387 72.3287 15.314C72.1735 15.1894 72.0794 15.0201 72.0465 14.8037C72.0159 14.5803 72.0465 14.3169 72.1406 14.0135L74.5747 6.15151C74.6687 5.85048 74.7981 5.58944 74.9674 5.37307C75.1367 5.14965 75.339 4.97327 75.5695 4.85098C75.8023 4.72634 76.0516 4.66519 76.3244 4.66519C76.5972 4.66519 76.7971 4.72634 76.9523 4.85098C77.1099 4.96622 77.2039 5.1379 77.2345 5.36131C77.2651 5.58473 77.2345 5.84813 77.1405 6.15151L74.7064 14.0135Z" fill="#F43000"/>
<path d="M63.2979 13.6067H63.218L65.6826 1.70197H61.9997L57.108 13.6067H57.0398L59.7585 1.70197H56.3084L53.3287 18.4607H57.4538L62.2067 6.89233H62.2867L59.869 18.4607H63.9917L71.3857 1.70197H67.9356L63.2979 13.6067Z" fill="#F43000"/>
<path d="M52.3081 10.3542C52.7643 9.82735 53.1124 9.18532 53.3452 8.42569L54.1942 5.68352C54.4552 4.83924 54.5211 4.1243 54.3941 3.534C54.2694 2.93665 53.9566 2.48511 53.4557 2.17467C52.9571 1.85718 52.2751 1.69962 51.4073 1.69962H45.9489L40.7632 18.4584H44.4461L46.3722 12.2332H47.1271L46.6755 18.4584H50.4972L50.7959 11.5253C51.3485 11.2619 51.8542 10.8715 52.3081 10.3518V10.3542ZM49.5635 8.44921C49.4506 8.81374 49.2649 9.09125 49.0038 9.28644C48.7451 9.47223 48.4229 9.56631 48.0349 9.56631H47.1976L48.7286 4.61817H49.5659C49.9539 4.61817 50.2173 4.71459 50.3584 4.90744C50.5019 5.09323 50.516 5.37309 50.4008 5.74467L49.5635 8.45156V8.44921Z" fill="#F43000"/>
<path d="M31.563 18.4607H39.3215L40.2904 15.3376H36.2124L37.4119 11.4571H41.2688L42.1648 8.56445H38.3079L39.465 4.82512H43.5429L44.5095 1.70197H36.751L31.563 18.4607Z" fill="#F43000"/>
<path d="M25.6906 4.82512H28.3387L24.1196 18.4607H27.8002L32.0192 4.82512H34.6791L35.648 1.70197H26.6572L25.6906 4.82512Z" fill="#F43000"/>
<path d="M12.9934 18.4607H16.6857L18.68 12.0145H22.3982L23.3201 9.0301H19.6042L20.9048 4.82512H24.971L25.9376 1.70197H18.1791L12.9934 18.4607Z" fill="#F43000"/>
<path d="M12.7441 1.70197H9.25881L1.1687 18.4607H4.90802L6.1968 15.4646H8.7226L8.16053 18.4607H11.8881L14.1717 1.70197H12.7441ZM7.40796 12.6542L10.5311 5.39425H10.6134L9.25175 12.6542H7.40796Z" fill="#F43000"/>
</g>
<path d="M40.1464 29.5783C39.8046 29.5783 39.5059 29.5066 39.2502 29.3631C38.9945 29.2169 38.7949 29.0147 38.6514 28.7564C38.5079 28.4981 38.4361 28.198 38.4361 27.8562V25.4884C38.4361 25.1466 38.5079 24.8465 38.6514 24.5882C38.7949 24.3299 38.9945 24.129 39.2502 23.9855C39.5085 23.8393 39.8072 23.7663 40.1464 23.7663C40.4778 23.7663 40.7687 23.8341 41.0192 23.9698C41.2697 24.1029 41.4654 24.2947 41.6063 24.5451C41.7472 24.7956 41.819 25.0944 41.8216 25.4414V26.0754H40.6083V25.3514C40.6057 25.2418 40.5874 25.1479 40.5535 25.0696C40.5196 24.9887 40.47 24.9274 40.4048 24.8856C40.3395 24.8413 40.2613 24.8191 40.1699 24.8191C40.0734 24.8191 39.9912 24.8439 39.9234 24.8935C39.8555 24.9404 39.8033 25.0057 39.7668 25.0892C39.7329 25.17 39.7159 25.264 39.7159 25.371V27.9736C39.7159 28.0832 39.7329 28.1798 39.7668 28.2633C39.8033 28.3442 39.8555 28.4081 39.9234 28.455C39.9912 28.502 40.0747 28.5255 40.1738 28.5255C40.2626 28.5255 40.3382 28.5046 40.4008 28.4629C40.4661 28.4185 40.5156 28.3572 40.5496 28.2789C40.5861 28.2006 40.6057 28.1054 40.6083 27.9932V27.2692H41.8216V27.8993C41.819 28.2463 41.7472 28.5451 41.6063 28.7956C41.468 29.046 41.2736 29.2391 41.0231 29.3748C40.7727 29.5105 40.4804 29.5783 40.1464 29.5783ZM42.91 29.4961V23.8485H44.1663V28.4707H45.5714V29.4961H42.91ZM48.1861 29.5744C47.8469 29.5744 47.5508 29.5092 47.2977 29.3787C47.0446 29.2456 46.8476 29.0565 46.7067 28.8112C46.5658 28.5659 46.4954 28.2737 46.4954 27.9345V23.8485H47.7517V27.9502C47.7517 28.0754 47.7687 28.1811 47.8026 28.2672C47.8365 28.3507 47.8861 28.4146 47.9513 28.459C48.0165 28.5033 48.0948 28.5255 48.1861 28.5255C48.2749 28.5255 48.3505 28.5033 48.4131 28.459C48.4784 28.4146 48.528 28.3507 48.5619 28.2672C48.5984 28.1811 48.6167 28.0754 48.6167 27.9502V23.8485H49.8691V27.9345C49.8691 28.2737 49.7986 28.5659 49.6577 28.8112C49.5195 29.0565 49.3238 29.2456 49.0707 29.3787C48.8176 29.5092 48.5227 29.5744 48.1861 29.5744ZM51.7168 29.4961V28.5842H52.6874C52.8387 28.5842 52.9496 28.5477 53.0201 28.4746C53.0931 28.3989 53.1297 28.2828 53.1297 28.1263V27.457C53.1297 27.3448 53.1127 27.2548 53.0788 27.187C53.0475 27.1191 52.9992 27.0696 52.934 27.0382C52.8687 27.0043 52.7852 26.9874 52.6835 26.9874H51.7168V26.1889H52.6483C52.797 26.1889 52.9027 26.1563 52.9653 26.0911C53.0305 26.0233 53.0631 25.9111 53.0631 25.7545V25.1909C53.0631 25.0396 53.0305 24.93 52.9653 24.8622C52.9 24.7943 52.797 24.7604 52.6561 24.7604H51.7168V23.8485H53.0318C53.3006 23.8485 53.5276 23.8928 53.7128 23.9816C53.9007 24.0677 54.0429 24.1981 54.1394 24.3729C54.2386 24.5451 54.2881 24.7604 54.2881 25.0187V25.5079C54.2881 25.7245 54.2555 25.9019 54.1903 26.0402C54.1277 26.1785 54.0377 26.2855 53.9202 26.3612C53.8028 26.4342 53.6672 26.4812 53.5132 26.5021V26.5334C53.6932 26.5568 53.8498 26.6116 53.9829 26.6977C54.1185 26.7812 54.2229 26.9013 54.296 27.0578C54.3716 27.2144 54.4095 27.4114 54.4095 27.6488V28.1733C54.4095 28.4524 54.356 28.6912 54.249 28.8895C54.1446 29.0878 53.9894 29.2391 53.7833 29.3435C53.5771 29.4452 53.3253 29.4961 53.0279 29.4961H51.7168ZM51.0906 29.4961V23.8485H52.343V29.4961H51.0906Z" fill="#F43000"/>
<rect x="1.82166" y="27.3255" width="2.18605" height="14.5736" transform="rotate(-90 1.82166 27.3255)" fill="#F43000"/>
<rect x="16.3954" y="28.0542" width="3.64341" height="1.09302" transform="rotate(-90 16.3954 28.0542)" fill="#F43000"/>
<rect x="1.82166" y="26.779" width="1.09302" height="31.3333" transform="rotate(-90 1.82166 26.779)" fill="#F43000"/>
<rect width="2.18605" height="14.5736" transform="matrix(4.37114e-08 -1 -1 -4.37114e-08 89.9922 27.3255)" fill="#F43000"/>
<rect width="3.64341" height="1.09302" transform="matrix(4.37114e-08 -1 -1 -4.37114e-08 75.783 28.0542)" fill="#F43000"/>
<rect width="1.09302" height="31.3333" transform="matrix(4.37114e-08 -1 -1 -4.37114e-08 89.9922 26.779)" fill="#F43000"/>
<defs>
<clipPath id="clip0_70_646">
<rect width="91.4112" height="17.2479" fill="white" transform="translate(1.1687 1.45737)"/>
</clipPath>
</defs>
</svg>
