<svg width="22" height="22" viewBox="0 0 22 22" fill="none" xmlns="http://www.w3.org/2000/svg">
<g opacity="0.5">
<path fill-rule="evenodd" clip-rule="evenodd" d="M7.99805 4.32463C7.99805 4.14772 8.14105 4.0038 8.31888 4.0038H12.9508C13.1286 4.0038 13.2716 4.14772 13.2716 4.32463V5.14872H7.99805V4.32463ZM8.53521 15.0955H9.45188V8.86213H8.53521V15.0955ZM11.816 15.0955H12.7326V8.86213H11.816V15.0955ZM14.4642 5.14872V4.32463C14.4642 3.49047 13.785 2.81213 12.9508 2.81213H8.31888C7.4838 2.81213 6.80546 3.49047 6.80546 4.32463V5.14872H2.8418V6.3413H4.3158L4.68705 17.7245C4.71363 18.5449 5.3773 19.1884 6.19771 19.1884H15.0692C15.8896 19.1884 16.5542 18.5449 16.5808 17.7245L16.9511 6.3413H18.4251V5.14872H14.4642Z" fill="#C8C8C8"/>
</g>
</svg>
