<svg width="30" height="30" viewBox="0 0 30 30" fill="none" xmlns="http://www.w3.org/2000/svg">
<path d="M6.28582 9.14751C6.47606 8.84077 6.78835 8.40078 7.1757 7.95219M12.5462 6.7568C12.2208 6.53195 11.5384 6.20347 10.734 6.12223M11.8872 3C11.9422 3.60152 11.7884 5.0681 10.734 6.12223M10.734 6.12223C10.3166 6.08007 9.8663 6.10448 9.41603 6.2445C8.60536 6.49658 7.79469 7.23536 7.1757 7.95219M12.6414 12.5363C12.8611 13.8455 11.5 15.5 10 15.963M4.30885 15.6366C4.1441 16.4904 4.37475 18.6079 6.61531 20.2473C8.85588 21.8866 9.41603 22.9795 9.41603 23.321L9.7813 26.2477C9.90623 27.2487 10.7571 28 11.7659 28H15M7.1757 7.95219C6.43974 7.66758 4.47356 7.61066 2.49658 9.65984" stroke="white" stroke-width="1.7" stroke-linecap="round"/>
<path d="M5.13255 18.7104C4.9678 18.9951 4.20996 19.94 2.49658 21.4427" stroke="white" stroke-width="1.7" stroke-linecap="round"/>
<path d="M23.7142 9.14751C23.5239 8.84077 23.2117 8.40078 22.8243 7.95219M17.4538 6.7568C17.7792 6.53195 18.4616 6.20347 19.266 6.12223M18.1128 3C18.0578 3.60152 18.2116 5.0681 19.266 6.12223M19.266 6.12223C19.6834 6.08007 20.1337 6.10448 20.584 6.2445C21.3946 6.49658 22.2053 7.23536 22.8243 7.95219M17.3586 12.5363C17.1389 13.8455 18.5 15.5 20 15.963M25.6912 15.6366C25.8559 16.4904 25.6253 18.6079 23.3847 20.2473C21.1441 21.8866 20.584 22.9795 20.584 23.321L20.2187 26.2477C20.0938 27.2487 19.2429 28 18.2341 28H15M22.8243 7.95219C23.5603 7.66758 25.5264 7.61066 27.5034 9.65984" stroke="white" stroke-width="1.7" stroke-linecap="round"/>
<path d="M24.8675 18.7104C25.0322 18.9951 25.79 19.94 27.5034 21.4427" stroke="white" stroke-width="1.7" stroke-linecap="round"/>
<path d="M15 15.9629L15 20.5925" stroke="white" stroke-width="1.7" stroke-linecap="round"/>
<path d="M15 25.2221L15 27.9999" stroke="white" stroke-width="1.7" stroke-linecap="round"/>
</svg>
