<svg width="30" height="30" viewBox="0 0 30 30" fill="none" xmlns="http://www.w3.org/2000/svg">
<path d="M20.8888 5.83333C20.8888 6.84586 20.068 7.66667 19.0555 7.66667C18.043 7.66667 17.2222 6.84586 17.2222 5.83333C17.2222 4.82081 18.043 4 19.0555 4C20.068 4 20.8888 4.82081 20.8888 5.83333Z" stroke="white" stroke-width="1.7"/>
<path d="M18.4443 26.0001L17.6326 22.8028C17.364 21.7447 16.8084 20.7783 16.0252 20.007L14.1666 18.1767M7.44434 13.9644C8.66656 11.5569 10.5459 10.1619 14.7777 10.1119M14.7777 10.1119C15.0449 10.1087 15.443 10.1078 15.8408 10.1078C16.4578 10.1079 16.7664 10.108 17.0122 10.2228C17.258 10.3377 17.5101 10.6389 18.0143 11.2414C18.1588 11.414 18.3071 11.5686 18.4443 11.6715M14.7777 10.1119L13.2266 12.5052C12.3738 13.8211 11.9474 14.479 11.9307 15.1698C11.9233 15.4775 11.9741 15.7838 12.0804 16.0727C12.319 16.7212 12.9348 17.2063 14.1666 18.1767M18.4443 11.6715C19.8557 12.7299 22.0654 13.1561 24.5554 10.3536M18.4443 11.6715L14.1666 18.1767" stroke="white" stroke-width="1.7" stroke-linecap="round" stroke-linejoin="round"/>
<path d="M4.99988 22.0036L5.82881 22.2009C7.94131 22.7034 10.1372 21.7423 11.111 19.8889" stroke="white" stroke-width="1.7" stroke-linecap="round" stroke-linejoin="round"/>
</svg>
