<svg width="30" height="30" viewBox="0 0 30 30" fill="none" xmlns="http://www.w3.org/2000/svg">
<path d="M5.39742 15.4279C5.06633 15.7607 5.06771 16.2989 5.4005 16.63C5.7333 16.9611 6.27149 16.9597 6.60258 16.6269L6 16.0274L5.39742 15.4279ZM16.3729 4.09279L16.6013 3.27405V3.27405L16.3729 4.09279ZM18.9983 4.82515L19.2267 4.00641V4.00641L18.9983 4.82515ZM20.1314 5.57748L19.4711 6.11274V6.11274L20.1314 5.57748ZM26.4579 15.353L25.6843 15.7051V15.7052L26.4579 15.353ZM13.3073 5.70253L12.6821 5.1266V5.1266L13.3073 5.70253ZM15.7688 9.21221L15.6304 8.37357H15.6304L15.7688 9.21221ZM18.9083 10.6626L19.5825 10.145L19.5825 10.145L18.9083 10.6626ZM19.9839 14.5973L19.1391 14.6908V14.6908L19.9839 14.5973ZM20.81 16.7256L20.3328 17.429C20.69 17.6714 21.1721 17.6075 21.4539 17.2805C21.7357 16.9535 21.7276 16.4672 21.4351 16.1497L20.81 16.7256ZM12.1683 17.4354C11.8774 17.8038 11.9402 18.3384 12.3086 18.6293C12.677 18.9202 13.2115 18.8574 13.5025 18.489L12.8354 17.9622L12.1683 17.4354ZM12.1679 7.70302L11.3305 7.84904V7.84904L12.1679 7.70302ZM27.756 21.1643L28.5455 21.4793V21.4793L27.756 21.1643ZM23.09 24.0703L23.3558 24.8776V24.8776L23.09 24.0703ZM17.5071 9.08654L17.8307 8.30056L17.8307 8.30056L17.5071 9.08654ZM15.0249 24.2392L15.6352 24.8309L15.6352 24.8309L15.0249 24.2392ZM6.62516 23.5692C6.30709 23.2239 5.76935 23.2019 5.42408 23.52C5.07882 23.838 5.05677 24.3758 5.37484 24.721L6 24.1451L6.62516 23.5692ZM15.2175 23.97L15.527 23.1783C15.1391 23.0266 14.6983 23.1785 14.4861 23.5369L15.2175 23.97ZM15.1798 24.0337L14.4484 23.6007L14.4483 23.6007L15.1798 24.0337ZM15.6585 15.9113L15.9183 16.7206L15.6585 15.9113ZM16.3729 4.09279L16.1445 4.91153L18.7699 5.64389L18.9983 4.82515L19.2267 4.00641L16.6013 3.27405L16.3729 4.09279ZM20.1314 5.57748L19.4711 6.11274C22.3151 9.62115 24.1364 12.3042 25.6843 15.7051L26.4579 15.353L27.2316 15.0009C25.6023 11.4212 23.6864 8.6131 20.7917 5.04222L20.1314 5.57748ZM19.9839 14.5973L19.1391 14.6908C19.2338 15.546 19.5106 16.5697 20.1848 17.3016L20.81 16.7256L21.4351 16.1497C21.1178 15.8052 20.9065 15.2062 20.8287 14.5037L19.9839 14.5973ZM18.9083 10.6626L18.2341 11.1802C18.4502 11.4617 18.5999 11.6569 18.7049 11.8026C18.822 11.9653 18.8321 11.9984 18.8213 11.9714L19.6113 11.6575L20.4012 11.3436C20.3251 11.1522 20.1963 10.9647 20.0846 10.8094C19.9606 10.6372 19.7915 10.4172 19.5825 10.145L18.9083 10.6626ZM19.9839 14.5973L20.8287 14.5037C20.7266 13.5811 20.6491 12.881 20.5889 12.3915C20.5589 12.1474 20.5321 11.9467 20.5078 11.793C20.4893 11.6764 20.4589 11.4889 20.4012 11.3436L19.6113 11.6575L18.8213 11.9714C18.7963 11.9083 18.8032 11.8981 18.8287 12.0591C18.8483 12.1828 18.8722 12.3599 18.9016 12.5989C18.9602 13.0757 19.0364 13.7632 19.1391 14.6908L19.9839 14.5973ZM13.3073 5.70253L12.6821 5.1266C12.2865 5.55601 11.9101 5.95983 11.665 6.34615C11.3892 6.78087 11.2291 7.2673 11.3305 7.84904L12.1679 7.70302L13.0052 7.557C12.9947 7.49654 12.9872 7.43549 13.1005 7.2569C13.2445 7.02991 13.4938 6.75458 13.9324 6.27846L13.3073 5.70253ZM26.4579 15.353L25.6843 15.7052C26.3384 17.1422 26.7837 18.1271 27.0038 18.9465C27.2112 19.7185 27.1972 20.2711 26.9665 20.8493L27.756 21.1643L28.5455 21.4793C28.9439 20.4806 28.9233 19.539 28.6456 18.5054C28.3806 17.519 27.8623 16.3868 27.2316 15.0009L26.4579 15.353ZM23.09 24.0703L23.3558 24.8776C24.6708 24.4446 25.7712 24.0861 26.6099 23.6188C27.5037 23.1209 28.1473 22.4772 28.5455 21.4793L27.756 21.1643L26.9665 20.8493C26.7355 21.4282 26.3917 21.7944 25.7826 22.1337C25.1184 22.5038 24.2004 22.8098 22.8241 23.2629L23.09 24.0703ZM15.7688 9.21221L15.9073 10.0509C16.4066 9.96842 16.7355 9.91465 16.9761 9.89238C17.2372 9.86821 17.2485 9.89929 17.1835 9.87253L17.5071 9.08654L17.8307 8.30056C17.4861 8.15866 17.1144 8.1723 16.8194 8.19962C16.5038 8.22883 16.1034 8.29547 15.6304 8.37357L15.7688 9.21221ZM15.0249 24.2392L14.4147 23.6475C13.4526 24.6397 11.9984 25.1637 10.499 25.1497C8.9997 25.1358 7.56128 24.5854 6.62516 23.5692L6 24.1451L5.37484 24.721C6.68792 26.1464 8.60883 26.8323 10.4832 26.8497C12.3573 26.8671 14.291 26.2173 15.6352 24.8309L15.0249 24.2392ZM23.09 24.0703L22.8241 23.2629C20.2639 24.1059 18.096 24.1827 15.527 23.1783L15.2175 23.97L14.908 24.7616C17.9026 25.9324 20.4831 25.8235 23.3558 24.8776L23.09 24.0703ZM15.1798 24.0337L15.9112 24.4668L15.949 24.403L15.2175 23.97L14.4861 23.5369L14.4484 23.6007L15.1798 24.0337ZM15.0249 24.2392L15.6352 24.8309C15.7487 24.7138 15.8391 24.5886 15.9112 24.4668L15.1798 24.0337L14.4483 23.6007C14.4328 23.627 14.4208 23.6412 14.4147 23.6475L15.0249 24.2392ZM20.81 16.7256L21.2872 16.0222C20.1217 15.2316 17.7973 14.3321 15.3987 15.1019L15.6585 15.9113L15.9183 16.7206C17.6537 16.1636 19.4323 16.8181 20.3328 17.429L20.81 16.7256ZM15.6585 15.9113L15.3987 15.1019C14.2563 15.4686 13.1416 16.2028 12.1683 17.4354L12.8354 17.9622L13.5025 18.489C14.2787 17.506 15.1158 16.9782 15.9183 16.7206L15.6585 15.9113ZM15.6585 15.9113L16.2417 15.2929C14.807 13.9397 12.7636 13.3141 10.7917 13.3352C8.82004 13.3563 6.79242 14.0257 5.39742 15.4279L6 16.0274L6.60258 16.6269C7.61289 15.6114 9.17398 15.0526 10.8099 15.0351C12.4458 15.0176 14.029 15.5427 15.0753 16.5296L15.6585 15.9113ZM17.5071 9.08654L17.1835 9.87253C17.2625 9.90505 17.4001 10.0126 17.609 10.2892C17.706 10.4176 17.7999 10.5565 17.9045 10.7117C18.0033 10.8583 18.1174 11.0282 18.2341 11.1802L18.9083 10.6626L19.5825 10.145C19.504 10.0426 19.4206 9.91936 19.3142 9.76151C19.2136 9.61229 19.0946 9.43545 18.9654 9.26448C18.7219 8.94218 18.3542 8.51609 17.8307 8.30056L17.5071 9.08654ZM18.9983 4.82515L18.7699 5.64389C18.9452 5.6928 19.0427 5.72071 19.1139 5.74561C19.1754 5.76713 19.1832 5.77511 19.1763 5.77056C19.1704 5.76661 19.1829 5.77252 19.2311 5.82518C19.2853 5.88443 19.3532 5.96724 19.4711 6.11274L20.1314 5.57748L20.7917 5.04222C20.5979 4.8031 20.3933 4.53815 20.1174 4.35476C19.8371 4.16852 19.515 4.08685 19.2267 4.00641L18.9983 4.82515ZM16.3729 4.09279L16.6013 3.27405C15.5938 2.99301 14.7916 3.21509 14.1329 3.68113C13.567 4.08159 13.0635 4.71266 12.6821 5.1266L13.3073 5.70253L13.9324 6.27846C14.4547 5.71155 14.744 5.33131 15.1148 5.06889C15.393 4.87206 15.6718 4.77969 16.1445 4.91153L16.3729 4.09279ZM12.1679 7.70302L11.3305 7.84904C11.5355 9.02438 12.5871 9.5939 13.4021 9.84737C14.2614 10.1146 15.2359 10.1617 15.9073 10.0509L15.7688 9.21221L15.6304 8.37357C15.2269 8.44018 14.5199 8.41473 13.9069 8.22407C13.2496 8.01962 13.0382 7.74581 13.0052 7.557L12.1679 7.70302Z" fill="white"/>
</svg>
