<svg width="30" height="30" viewBox="0 0 30 30" fill="none" xmlns="http://www.w3.org/2000/svg">
<path d="M26 8.39999C26 9.49999 24.9 11.7 20.5 11.7C16.1 11.7 15 9.49999 15 8.39999C15 9.49999 13.9 11.7 9.5 11.7C5.1 11.7 4 9.49999 4 8.39999" stroke="white" stroke-width="1.7" stroke-linecap="round" stroke-linejoin="round"/>
<path d="M12.8 5.65C12.4333 5.1 11.15 4 9.5 4M17.2 5.65C17.5667 5.1 18.85 4 20.5 4" stroke="white" stroke-width="1.7" stroke-linecap="round" stroke-linejoin="round"/>
<path d="M6.19995 11.7V12.8C6.19995 14.2523 6.49258 15.6817 6.81605 17.0894C7.40929 19.6711 7.70622 23.3386 6.19995 26M23.8 11.7V12.8C23.8 14.2523 23.5073 15.6817 23.1839 17.0894C22.5906 19.6711 22.2937 23.3386 23.8 26" stroke="white" stroke-width="1.7" stroke-linecap="round" stroke-linejoin="round"/>
<path d="M19.4 22.7C17.7665 23.9969 16.8083 24.2059 15.3552 23.0106C15.1458 22.8384 14.844 22.8265 14.6253 22.9866C13.0907 24.1101 12.1393 24.1202 10.6 22.7" stroke="white" stroke-width="1.7" stroke-linecap="round" stroke-linejoin="round"/>
<path d="M19.4 17.2C17.7665 18.4969 16.8083 18.7059 15.3552 17.5106C15.1458 17.3384 14.844 17.3265 14.6253 17.4866C13.0907 18.6101 12.1393 18.6202 10.6 17.2" stroke="white" stroke-width="1.7" stroke-linecap="round" stroke-linejoin="round"/>
<path d="M15 17.2V15" stroke="white" stroke-width="1.7" stroke-linecap="round" stroke-linejoin="round"/>
</svg>
