<svg width="30" height="30" viewBox="0 0 30 30" fill="none" xmlns="http://www.w3.org/2000/svg">
<path d="M6.1001 4.00008C9.06056 4.34502 15.8874 6.08537 18.9052 10.3202C19.2744 10.8382 19.6632 11.2048 20.3006 11.3661C21.0978 11.5641 21.7576 12.0988 21.9971 12.9058C22.2522 13.784 22.7233 14.7102 22.5736 15.6491C22.5163 16.0087 22.3403 16.3398 21.9884 17.0021L17.2067 26.0001" stroke="white" stroke-width="1.7" stroke-linecap="round" stroke-linejoin="round"/>
<path d="M5 15.0002C6.1 16.8993 9.58083 17.8557 13.8 16.8993C13.1551 17.2747 12.054 17.952 10.8468 19.3464C10.2319 20.0567 9.96954 21.0452 9.92672 22.0431C9.8695 23.3767 9.67165 24.8274 8.9875 26.0002" stroke="white" stroke-width="1.7" stroke-linecap="round" stroke-linejoin="round"/>
<path d="M6.1001 9.50015C6.1001 9.50015 8.25497 9.81827 9.9501 11.1502C11.0501 12.0144 13.1584 12.5906 13.8001 12.8002" stroke="white" stroke-width="1.7" stroke-linecap="round" stroke-linejoin="round"/>
</svg>
